<svg width="80" height="81" fill="none" xmlns="http://www.w3.org/2000/svg"><g clip-path="url(#clip0_354_3353)"><g clip-path="url(#clip1_354_3353)" fill="#DABAF4"><path d="M0 54.065c.06.16.12.327.194.52.047-.06.094-.093.1-.126.516-4.613 5.131-7.75 9.646-6.556 1.822.481 3.443 1.349 4.903 2.524.321.26.482.273.73-.12 1.313-2.097 3.054-3.779 5.144-5.107.335-.214.469-.434.469-.808 0-.955-.027-1.916.04-2.87.1-1.329 1.433-2.15 2.692-1.683.77.287 1.2.881 1.266 1.69.047.526.04 1.06.034 1.595 0 .28.1.353.381.347 1.246-.02 2.492-.007 3.832-.007 0-.314-.014-.654 0-1.001.02-.407 0-.821.093-1.215.221-.948 1.206-1.63 2.117-1.516 1.011.127 1.762.982 1.788 2.07.02.901-.013 1.809.02 2.71.007.207.134.508.295.6 2.773 1.583 4.709 3.913 6.216 6.757.167-.254.321-.461.442-.688 1.406-2.517 3.362-4.513 5.8-6.068.168-.107.308-.38.322-.587.047-.882.007-1.776.053-2.657.067-1.309.891-2.157 2.037-2.15 1.091.007 1.922.948 1.962 2.243.013.507 0 1.021 0 1.495h4.253c0-.5-.013-1.034 0-1.575.034-1.061.563-1.802 1.447-2.063 1.145-.334 2.344.434 2.445 1.636.08 1.001.033 2.016.094 3.024.013.233.167.56.361.674 2.197 1.235 3.892 2.977 5.251 5.06.094.147.201.28.328.46.309-.226.577-.427.851-.62 1.788-1.282 3.697-2.296 5.955-2.437 3.328-.207 5.66 1.422 7.287 4.146 2.297 3.832.83 7.824-1.715 10.2a12.846 12.846 0 01-4.306 2.664c.154.173.267.313.401.44 1.474 1.422 2.593 3.044 3.015 5.094.823 3.992-1.628 7.657-5.654 8.337-1.808.308-3.462-.24-4.99-1.181-1.54-.948-2.739-2.257-3.85-3.652-.135-.167-.262-.333-.43-.547-.321.34-.602.674-.917.975a996.698 996.698 0 01-6.109 5.8c-.328.308-.75.528-1.132.788h-.857c-.409-.253-.857-.454-1.219-.767-1.46-1.275-2.98-2.504-4.307-3.899-1.36-1.435-2.92-2.316-4.87-2.637-3.408-.554-6.382.12-8.834 2.71-1.607 1.703-3.302 3.338-5.311 4.593h-.857c-.436-.28-.911-.507-1.293-.84a217.533 217.533 0 01-4.675-4.293c-.784-.741-1.494-1.556-2.278-2.383-.134.167-.24.293-.348.427-1.427 1.796-3 3.431-5.157 4.372-3.798 1.663-8.105-.287-9.243-4.225-.764-2.637-.108-5.047 1.507-7.21.475-.634 1.065-1.181 1.66-1.829-.214-.113-.415-.234-.629-.334-1.607-.734-3.054-1.709-4.213-3.037-1.112-1.275-2.05-2.65-1.828-4.48.006-.066-.014-.14-.034-.306-.147.44-.261.787-.375 1.141v-3.618zm16.624 5.107c7.167-2.59 14.213-2.59 21.273-.04.02-.214.047-.314.033-.414-.515-3.785-1.996-7.01-5.13-9.453-2.653-2.063-7.301-2.483-10.355-.474-2.927 1.93-4.595 4.68-5.405 8.004-.181.728-.262 1.482-.416 2.377zm25.392-.014c7.14-2.563 14.2-2.596 21.212-.046.067-.147.094-.18.087-.214-.448-3.912-1.922-7.283-5.237-9.646-2.98-2.123-6.183-2.483-9.478-.868-2.512 1.228-4.146 3.351-5.311 5.834-.717 1.522-1.065 3.131-1.273 4.94zM17.113 63.19c.523 1.516 1.273 2.817 2.103 4.073.195.293.409.193.643.073a16.146 16.146 0 015.138-1.569c3.402-.46 6.65.034 9.718 1.576.369.186.583.12.777-.22.329-.568.71-1.109 1.012-1.69.375-.714.69-1.462 1.051-2.243-6.872-2.57-13.623-2.69-20.448 0h.006zm25.372 0c.08.22.114.394.194.541.59 1.108 1.192 2.21 1.768 3.324.208.394.416.448.838.254 4.97-2.296 9.946-2.323 14.896.074.328.16.495.086.643-.187.529-.942 1.092-1.87 1.574-2.83.57-1.142.55-1.176-.663-1.59-4.253-1.468-8.607-1.935-13.068-1.261a28.39 28.39 0 00-6.189 1.675h.007zm24.588-6.315c.054 1.209.275 2.557 1.179 3.705.462.588 1.058.861 1.788.654.784-.22 1.594-.427 2.311-.787 1.32-.655 2.485-1.529 3.181-2.89 1.246-2.457-.401-5.535-3.14-5.869-2.975-.36-5.38 1.896-5.319 5.18v.007zm-54.166-.313c-.04-.3-.067-.768-.168-1.209-.556-2.416-3.382-4.185-5.68-3.578-2.926.775-4.045 4.42-1.995 6.75 1.225 1.394 2.773 2.382 4.675 2.683 1.159.187 1.714-.067 2.297-1.075.61-1.055.804-2.216.864-3.572h.007zm-.18 9.559c-.33.08-.677.107-.972.247-1.474.708-2.733 1.675-3.597 3.07-.583.935-.784 1.983-.502 3.065.489 1.876 2.558 2.59 4.4 1.462a16.583 16.583 0 002.606-2.023c.85-.801 1.48-1.976.562-3.558-.234-.4-.448-.808-.67-1.208-.395-.701-1.01-1.022-1.821-1.055h-.007zm56.797 8.385c1.193.02 2.177-.615 2.626-1.656.51-1.182.241-2.296-.375-3.344-.837-1.422-2.117-2.37-3.55-3.131-.603-.314-1.246-.294-1.862-.047-.998.394-2.257 2.937-1.99 3.972 0 .02.014.033.014.053.215 1.536 3.47 4.066 4.716 4.12.16.006.321.02.428.026l-.007.007zM47.02 70.352c.168.22.275.4.416.548 1.165 1.168 2.357 2.316 3.503 3.504 1.065 1.108 2.766.875 3.677-.08 1.105-1.161 2.217-2.303 3.322-3.458.127-.133.228-.287.409-.527-3.832-1.389-7.536-1.609-11.327.027v-.014zm-25.445.167c1.447 1.409 2.806 2.81 4.26 4.112.85.761 2.11.721 3.04-.12 1.367-1.242 2.62-2.61 3.912-3.925.047-.047.06-.127.087-.187-2.873-1.575-8.727-1.589-11.306.12h.007zM39.906.66C48.352.867 55.6 3.59 61.507 9.525c1.688 1.696 1.32 4.2-.77 5.187-1.112.528-2.19.36-3.209-.274-.267-.166-.502-.4-.73-.62-2.578-2.497-5.539-4.393-8.961-5.534-3.082-1.028-6.256-1.342-9.498-1.162-5.097.274-9.558 2.116-13.51 5.26-.696.555-1.32 1.189-1.99 1.776-1.379 1.202-3.227 1.148-4.42-.113-1.225-1.302-1.199-3.238.087-4.493 4.756-4.666 10.456-7.49 17.053-8.525.684-.106 1.38-.16 2.077-.22.797-.06 1.6-.1 2.264-.14l.006-.007z"/><path d="M40.208 13.878c4.581.194 8.787 1.695 12.183 5.133.83.842 1.152 1.83.784 2.971-.362 1.115-1.172 1.756-2.331 1.936-.824.127-1.534-.16-2.184-.668-.743-.58-1.5-1.134-2.263-1.695-3.59-2.624-10.094-2.824-14.354 1.141a9.787 9.787 0 01-.857.721 2.742 2.742 0 01-3.49-.227c-1.005-.928-1.22-2.416-.482-3.531.234-.354.522-.674.837-.961 3.362-3.138 7.381-4.673 12.15-4.813l.007-.007zm-.235 12.63c2.391.02 4.314 1.99 4.287 4.4-.027 2.222-2.07 4.225-4.287 4.205-2.277-.02-4.266-2.083-4.226-4.38.04-2.316 1.976-4.245 4.226-4.225z"/></g></g><defs><clipPath id="clip0_354_3353"><path fill="#fff" transform="translate(0 .66)" d="M0 0h80v80H0z"/></clipPath><clipPath id="clip1_354_3353"><path fill="#fff" transform="translate(0 .66)" d="M0 0h80v80H0z"/></clipPath></defs></svg>