<svg version="1.1" id="レイヤー_1" xmlns="http://www.w3.org/2000/svg" x="0" y="0" viewBox="0 0 337.06 119.84" xml:space="preserve"><style>.st0{fill:#37293e}.st1{fill:#dac8de}.st2{fill:#dabaf4}</style><path class="st0" d="M272.61 23.07c.9.56 1.69 1.23 2.36 2.04 1.86 2.24 2.73 4.79 2.53 7.7-.32 4.74-4.07 8.83-8.78 9.53-1.02.15-2.06.16-3.09.17-2.31.02-4.63.01-6.94.01-.6 0-1.19-.04-1.73-.35-.96-.56-1.42-1.4-1.43-2.49-.01-2.44-.01-4.88-.01-7.31 0-7.03 0-14.07.01-21.1 0-.44.04-.9.16-1.32.33-1.09 1.4-1.81 2.57-1.81 2.29 0 4.58-.05 6.87.01 3.91.11 6.8 1.89 8.44 5.46 1.46 3.18 1.1 6.26-.81 9.18-.04.07-.09.13-.13.19.01.01.01.03-.02.09zm-11.62 3.81v10.17h5.54c.35 0 .7-.02 1.04-.06 3.12-.42 5.38-3.13 4.26-6.78-.51-1.64-2.34-3.22-4.54-3.29-1.58-.05-3.16-.03-4.75-.03-.51-.02-1.01-.01-1.55-.01zm0-13.26c-.01.08-.02.12-.02.17v7.34c0 .23.1.28.31.28 1.34 0 2.67.03 4.01-.01 1.31-.04 2.36-.67 3.09-1.72.85-1.23.94-2.6.28-3.95-.66-1.33-1.77-2.09-3.29-2.13-1.37-.03-2.74-.02-4.11-.02-.09 0-.16.02-.27.04zM176.5 33.09c.19-.57.38-1.14.56-1.71 1.22-3.73 2.43-7.45 3.66-11.18.48-1.45 1.91-2.2 3.31-1.75.75.24 1.27.75 1.54 1.49.37 1.05.72 2.12 1.07 3.18 1.03 3.11 2.06 6.21 3.09 9.32.07.21.16.42.24.63.03 0 .06-.01.09-.01.21-.58.42-1.16.64-1.75 1.37-3.72 2.74-7.44 4.1-11.17.35-.96.96-1.62 2-1.84 1.67-.36 3.54 1.56 2.76 3.53-.62 1.58-1.21 3.17-1.81 4.76-1.76 4.67-3.52 9.35-5.26 14.03-.48 1.3-1.8 2.15-3.1 1.77-.86-.25-1.46-.82-1.74-1.68-.7-2.07-1.38-4.15-2.07-6.23-.74-2.24-1.48-4.47-2.22-6.71a.744.744 0 00-.2-.32c-.25.76-.5 1.51-.75 2.27-1.15 3.57-2.31 7.14-3.46 10.71-.26.8-.72 1.45-1.49 1.82-1.07.5-2.24.19-3-.79-.23-.3-.42-.64-.55-.99-2.32-6.18-4.62-12.37-6.93-18.55-.65-1.73.24-3.35 2-3.64.99-.16 2.02.4 2.47 1.43.43 1 .79 2.04 1.17 3.07 1.22 3.3 2.43 6.6 3.65 9.9.05.13.1.27.16.4.01.01.04.01.07.01zm150.45-1.13h-7.41c-.64 0-.63 0-.46.6.63 2.25 2.18 3.62 4.3 4.41 2.21.82 4.36.63 6.45-.42.27-.13.52-.31.76-.5.75-.59 1.59-.75 2.51-.54.9.2 1.32.87 1.55 1.68.23.81.02 1.53-.61 2.06-.67.56-1.36 1.1-2.11 1.55-1.99 1.21-4.2 1.71-6.5 1.66-4.54-.09-8.02-2.08-10.33-6.01-1.24-2.11-1.86-4.41-1.69-6.84.31-4.42 2.33-7.91 6.17-10.19 2.28-1.35 4.83-1.76 7.47-1.37 2.08.31 4 1.03 5.62 2.39 2.43 2.03 3.86 4.64 4.29 7.77.08.58.13 1.18.06 1.76-.14 1.1-.98 1.84-2.09 1.93-.54.04-1.08.03-1.62.03-1.07 0-2.13-.01-3.2-.01-1.05.04-2.11.04-3.16.04zm5.53-4.15c.03-.04.07-.07.1-.11-.24-.46-.44-.94-.71-1.38-.77-1.22-1.87-2.08-3.12-2.74-1.45-.77-3.01-1.19-4.67-.83-2.66.57-4.47 2.11-5.32 4.72-.1.29-.01.37.26.36h.17c4.28-.01 8.55-.01 12.83-.02h.46zm-42.58 4.18c.13.8.42 1.48.8 2.13.78 1.34 1.96 2.21 3.39 2.78 1.26.49 2.55.66 3.89.5 1.37-.16 2.59-.62 3.7-1.46 1.57-1.19 3.71-.31 3.97 1.61.1.7-.18 1.27-.69 1.73-1.7 1.55-3.68 2.54-5.94 2.96-2.49.46-4.92.35-7.26-.68-3.89-1.72-6.22-4.73-7.16-8.82-1.19-5.17 1.4-11.15 6.72-13.7 1.94-.93 4.03-1.26 6.2-1.01 1.71.19 3.34.64 4.79 1.55 2.92 1.82 4.74 4.44 5.45 7.81.18.85.36 1.71.22 2.59-.18 1.13-1 1.89-2.15 1.96-.73.04-1.46.02-2.19.02h-13.21c-.15 0-.32.02-.53.03zm13.58-4.2c-.04-.17-.05-.32-.12-.44-.26-.48-.48-.99-.8-1.42-.86-1.18-2.03-1.98-3.33-2.59-.93-.44-1.92-.72-2.95-.71-1.99.02-3.69.75-5.05 2.21-.78.83-1.3 1.8-1.57 2.95h13.82zm-155.89-14.2h-.49c-2.19 0-4.38 0-6.57-.01-.64 0-1.28-.01-1.87-.33-1.11-.6-1.69-1.89-1.39-3.07.32-1.26 1.35-2.06 2.69-2.06h15.84c1.63 0 3.26.03 4.89-.01 1.45-.04 2.67 1.12 2.75 2.53a2.792 2.792 0 01-2.54 2.91c-.32.03-.65.03-.98.03-2.17 0-4.34.02-6.5-.01-.39 0-.44.13-.44.45 0 3.62-.01 7.25-.01 10.87 0 4.82 0 9.64-.01 14.46 0 .44-.03.91-.16 1.32-.39 1.22-1.59 1.94-2.87 1.78-1.24-.16-2.3-1.26-2.32-2.54-.04-1.83-.02-3.67-.03-5.5V14.35c.01-.23.01-.47.01-.76zm82.23 5.85c.49-.24.96-.49 1.44-.7 3.7-1.62 8.44-.63 11.12 2.31 1.93 2.12 2.91 4.6 2.9 7.47-.02 3.67-.01 7.34-.01 11.01 0 .65-.09 1.27-.47 1.82-.61.88-1.67 1.31-2.64 1.06-1.1-.29-1.91-1.2-2-2.27-.03-.4-.06-.8-.06-1.21 0-3.58-.03-7.16.03-10.74.05-2.69-2.32-4.72-4.43-4.94-2.17-.22-3.82.55-4.93 2.42-.45.75-.64 1.59-.64 2.47 0 3.7.01 7.4.02 11.11 0 .93-.19 1.79-.88 2.45-.79.75-1.73.99-2.76.59-1.05-.41-1.56-1.23-1.64-2.33-.03-.43-.02-.87-.02-1.31 0-5.89.01-11.79.01-17.68 0-.59.03-1.16.33-1.69 1-1.75 3.45-1.78 4.5-.05.05.06.08.12.13.21zm-20.63 10.77v-8.76c0-.48.01-.97.11-1.43.26-1.24 1.46-2.13 2.66-2.02 1.41.13 2.41 1.07 2.46 2.42.05 1.67.03 3.33.03 5v14.26c0 1.42-.77 2.44-2.06 2.73-1.52.35-3.04-.76-3.17-2.31-.04-.5-.05-1.01-.05-1.51V30.2c.01.01.01.01.02.01zm5.31-19.34c-.02 1.52-1.25 2.7-2.78 2.67-1.42-.03-2.62-1.27-2.61-2.72.01-1.5 1.29-2.74 2.8-2.71 1.44.03 2.61 1.28 2.59 2.76z"/><path class="st1" d="M0 80c.09.24.18.49.29.78.07-.09.14-.14.15-.19.77-6.91 7.66-11.61 14.4-9.82 2.72.72 5.14 2.02 7.32 3.78.48.39.72.41 1.09-.18 1.96-3.14 4.56-5.66 7.68-7.65.5-.32.7-.65.7-1.21 0-1.43-.04-2.87.06-4.3.15-1.99 2.14-3.22 4.02-2.52 1.15.43 1.79 1.32 1.89 2.53.07.79.06 1.59.05 2.39 0 .42.15.53.57.52 1.86-.03 3.72-.01 5.72-.01 0-.47-.02-.98 0-1.5.03-.61.01-1.23.14-1.82.33-1.42 1.8-2.44 3.16-2.27 1.51.19 2.63 1.47 2.67 3.1.03 1.35-.02 2.71.03 4.06.01.31.2.76.44.9 4.14 2.37 7.03 5.86 9.28 10.12.25-.38.48-.69.66-1.03 2.1-3.77 5.02-6.76 8.66-9.09.25-.16.46-.57.48-.88.07-1.32.01-2.66.08-3.98.1-1.96 1.33-3.23 3.04-3.22 1.63.01 2.87 1.42 2.93 3.36.02.76 0 1.53 0 2.24h6.35c0-.75-.02-1.55 0-2.36.05-1.59.84-2.7 2.16-3.09 1.71-.5 3.5.65 3.65 2.45.12 1.5.05 3.02.14 4.53.02.35.25.84.54 1.01 3.28 1.85 5.81 4.46 7.84 7.58.14.22.3.42.49.69.46-.34.86-.64 1.27-.93 2.67-1.92 5.52-3.44 8.89-3.65 4.97-.31 8.45 2.13 10.88 6.21 3.43 5.74 1.24 11.72-2.56 15.28a19.169 19.169 0 01-6.43 3.99c.23.26.4.47.6.66 2.2 2.13 3.87 4.56 4.5 7.63 1.23 5.98-2.43 11.47-8.44 12.49-2.7.46-5.17-.36-7.45-1.77-2.3-1.42-4.09-3.38-5.75-5.47-.2-.25-.39-.5-.64-.82-.48.51-.9 1.01-1.37 1.46-3.03 2.91-6.07 5.81-9.12 8.69-.49.46-1.12.79-1.69 1.18h-1.28c-.61-.38-1.28-.68-1.82-1.15-2.18-1.91-4.45-3.75-6.43-5.84-2.03-2.15-4.36-3.47-7.27-3.95-5.09-.83-9.53.18-13.19 4.06-2.4 2.55-4.93 5-7.93 6.88h-1.28c-.65-.42-1.36-.76-1.93-1.26-2.35-2.11-4.69-4.25-6.98-6.43-1.17-1.11-2.23-2.33-3.4-3.57-.2.25-.36.44-.52.64-2.13 2.69-4.48 5.14-7.7 6.55-5.67 2.49-12.1-.43-13.8-6.33-1.14-3.95-.16-7.56 2.25-10.8.71-.95 1.59-1.77 2.48-2.74-.32-.17-.62-.35-.94-.5-2.4-1.1-4.56-2.56-6.29-4.55C1.68 88.97.28 86.91.61 84.17c.01-.1-.02-.21-.05-.46-.22.66-.39 1.18-.56 1.71V80zm24.82 7.65c10.7-3.88 21.22-3.88 31.76-.06.03-.32.07-.47.05-.62-.77-5.67-2.98-10.5-7.66-14.16-3.96-3.09-10.9-3.72-15.46-.71-4.37 2.89-6.86 7.01-8.07 11.99-.26 1.1-.39 2.23-.62 3.56zm37.92-.02c10.66-3.84 21.2-3.89 31.67-.07.1-.22.14-.27.13-.32-.67-5.86-2.87-10.91-7.82-14.45-4.45-3.18-9.23-3.72-14.15-1.3-3.75 1.84-6.19 5.02-7.93 8.74-1.07 2.28-1.59 4.69-1.9 7.4zm-37.19 6.04c.78 2.27 1.9 4.22 3.14 6.1.29.44.61.29.96.11 2.42-1.22 4.99-1.99 7.67-2.35 5.08-.69 9.93.05 14.51 2.36.55.28.87.18 1.16-.33.49-.85 1.06-1.66 1.51-2.53.56-1.07 1.03-2.19 1.57-3.36-10.24-3.85-20.32-4.02-30.52 0zm37.89 0c.12.33.17.59.29.81.88 1.66 1.78 3.31 2.64 4.98.31.59.62.67 1.25.38 7.42-3.44 14.85-3.48 22.24.11.49.24.74.13.96-.28.79-1.41 1.63-2.8 2.35-4.24.85-1.71.82-1.76-.99-2.38-6.35-2.2-12.85-2.9-19.51-1.89-3.13.47-6.17 1.3-9.23 2.51zm36.7-9.46c.08 1.81.41 3.83 1.76 5.55.69.88 1.58 1.29 2.67.98 1.17-.33 2.38-.64 3.45-1.18 1.97-.99 3.71-2.29 4.75-4.33 1.86-3.68-.6-8.29-4.69-8.79-4.44-.53-8.02 2.85-7.94 7.77zm-80.87-.46c-.06-.45-.1-1.15-.25-1.81-.83-3.62-5.05-6.27-8.48-5.36-4.37 1.16-6.04 6.62-2.98 10.11 1.83 2.09 4.14 3.57 6.98 4.02 1.73.28 2.56-.1 3.43-1.61.92-1.58 1.22-3.32 1.3-5.35zM19 98.07c-.49.12-1.01.16-1.45.37-2.2 1.06-4.08 2.51-5.37 4.6-.87 1.4-1.17 2.97-.75 4.59.73 2.81 3.82 3.88 6.57 2.19 1.39-.86 2.7-1.91 3.89-3.03 1.27-1.2 2.21-2.96.84-5.33-.35-.6-.67-1.21-1-1.81-.59-1.04-1.51-1.52-2.73-1.58zm84.81 12.56c1.78.03 3.25-.92 3.92-2.48.76-1.77.36-3.44-.56-5.01-1.25-2.13-3.16-3.55-5.3-4.69-.9-.47-1.86-.44-2.78-.07-1.49.59-3.37 4.4-2.97 5.95.01.03.02.05.02.08.32 2.3 5.18 6.09 7.04 6.17.23.02.47.04.63.05zm-33.6-6.22c.25.33.41.6.62.82 1.74 1.75 3.52 3.47 5.23 5.25 1.59 1.66 4.13 1.31 5.49-.12 1.65-1.74 3.31-3.45 4.96-5.18.19-.2.34-.43.61-.79-5.72-2.09-11.25-2.43-16.91.02zm-37.99.25c2.16 2.11 4.19 4.21 6.36 6.16 1.27 1.14 3.15 1.08 4.54-.18 2.04-1.86 3.91-3.91 5.84-5.88.07-.07.09-.19.13-.28-4.29-2.35-13.03-2.37-16.87.18zM59.58 0c12.61.31 23.43 4.39 32.25 13.28 2.52 2.54 1.97 6.29-1.15 7.77-1.66.79-3.27.54-4.79-.41-.4-.25-.75-.6-1.09-.93-3.85-3.74-8.27-6.58-13.38-8.29-4.6-1.54-9.34-2.01-14.18-1.74-7.61.41-14.27 3.17-20.17 7.88-1.04.83-1.97 1.78-2.97 2.66-2.06 1.8-4.82 1.72-6.6-.17-1.83-1.95-1.79-4.85.13-6.73C34.73 6.33 43.24 2.1 53.09.55c1.02-.16 2.06-.24 3.1-.33 1.2-.11 2.39-.16 3.39-.22z"/><path class="st1" d="M60.03 19.8c6.84.29 13.12 2.54 18.19 7.69 1.24 1.26 1.72 2.74 1.17 4.45-.54 1.67-1.75 2.63-3.48 2.9-1.23.19-2.29-.24-3.26-1-1.11-.87-2.24-1.7-3.38-2.54-5.36-3.93-15.07-4.23-21.43 1.71-.41.38-.83.75-1.28 1.08-1.62 1.16-3.76 1.01-5.21-.34-1.5-1.39-1.82-3.62-.72-5.29.35-.53.78-1.01 1.25-1.44 5.02-4.71 11.02-7.01 18.15-7.22zm-.35 18.92c3.57.03 6.44 2.98 6.4 6.59-.04 3.33-3.09 6.33-6.4 6.3-3.4-.03-6.37-3.12-6.31-6.56.06-3.46 2.94-6.35 6.31-6.33z"/><path class="st0" d="M144.82 63.06v17.37c0 .44-.24.68-.68.68h-1.46c-.44 0-.68-.24-.68-.68V63.06c0-.44.24-.68.68-.68h1.46c.44 0 .68.24.68.68zm17.73 0v.05c0 .44-.24.68-.68.68h-4.84v16.63c0 .44-.24.68-.68.68h-1.31c-.44 0-.68-.24-.68-.68V63.79h-4.84c-.44 0-.68-.24-.68-.68v-.05c0-.44.24-.68.68-.68h12.34c.45 0 .69.24.69.68zm26.7-.31c0 .37-.24.58-.71.58h-9.62v1.86h7.48c.47 0 .71.24.71.71v6.93c0 .47-.24.71-.71.71h-1.88v1.75h4.03c.47 0 .71.24.71.71 0 .39-.24.6-.71.6h-4.03v3.71c0 2.56-.37 2.85-3.69 2.85-.55 0-1.88-.05-4-.1-.47-.03-.73-.26-.73-.71-.03-.44.24-.68.73-.65 1.99.05 3.24.11 3.71.11 1.44 0 1.28-.05 1.28-1.54v-3.66h-15.2c-.47 0-.71-.24-.71-.71 0-.39.24-.6.71-.6h15.2v-1.75h-13.05c-.47 0-.71-.24-.71-.71v-6.93c0-.47.24-.71.71-.71h7.48v-1.86h-9.62c-.47 0-.71-.24-.71-.71 0-.37.24-.58.71-.58h9.62v-1.36c0-.47.24-.71.71-.71h1.25c.47 0 .71.24.71.71v1.36h9.62c.48-.01.71.23.71.7zm-18.02 14.64c1.73.92 3.19 1.88 4.42 2.75.37.26.42.6.16.97l-.26.39c-.26.42-.6.47-.97.18-1.44-1.07-2.82-1.99-4.24-2.8-.39-.24-.5-.55-.24-.97l.16-.26c.24-.36.58-.47.97-.26zm5.02-11.09h-5.62v2.43h5.62V66.3zm0 3.48h-5.62v2.59h5.62v-2.59zm8.3-3.48h-5.62v2.43h5.62V66.3zm0 3.48h-5.62v2.59h5.62v-2.59zm18.38 1.86h-7.01v10.78c0 .47-.24.71-.71.71h-1.23c-.47 0-.71-.24-.71-.71V61.7c0-.47.24-.71.71-.71h8.95c.47 0 .71.24.71.71v9.23c0 .47-.23.71-.71.71zm-1.85-9.31h-5.15v3.37h5.15v-3.37zm0 4.52h-5.15v3.5h5.15v-3.5zm10.67 16.09c-.37 0-1.57-.05-3.61-.1-.47-.03-.71-.26-.73-.71-.03-.47.24-.73.73-.71 1.88.05 2.98.1 3.29.1 1.15 0 1.18-.03 1.18-1.73v-8.16h-7.25c-.47 0-.71-.24-.71-.71V61.7c0-.47.24-.71.71-.71h9.18c.47 0 .71.24.71.71v18.1c0 2.72-.36 3.14-3.5 3.14zm.86-20.61h-5.39v3.37h5.39v-3.37zm0 4.52h-5.39v3.5h5.39v-3.5zm-53.1 25.64c-2.2 8.29-6.85 14.12-14.72 18.05-.47.24-.84.1-.99-.29-.18-.42-.05-.73.39-.99 6.36-3.79 9.68-9.21 11.9-16.5h-14.25c-.5 0-.76-.24-.78-.71 0-.44.24-.71.76-.71h16.84c.54-.01 1.09.31.85 1.15zm8.74-1.97h1.12c.5 0 .78.26.78.79v10.36c0 .5-.26.78-.78.78h-1.12c-.5 0-.78-.29-.78-.78V91.31c0-.5.29-.79.78-.79zm2.2 20.8c-.5.16-.81.03-.94-.34-.13-.39.05-.68.52-.89 5.94-2.43 8.24-6.62 8.24-13.18v-6.3c0-.52.29-.78.79-.78h1.31c.52 0 .78.26.78.78v6.3c0 7.03-3.38 12-10.7 14.41zm38.42-10.05h-19.93c-.47 0-.71-.24-.71-.71v-.31c0-.47.24-.71.71-.71h19.93c.47 0 .71.24.71.71v.31c0 .48-.24.71-.71.71zm24.17-4.29c-2.88 7.38-6.36 11.19-13 14.23-.44.21-.81.1-1.02-.29-.24-.42-.1-.76.34-1.02 5.78-3.5 7.79-6.83 9.99-12.76h-13.89c-.52 0-.81-.24-.79-.71.03-.45.29-.68.79-.68h16.76c.53 0 1.21.21.82 1.23zm-16.19-6.12c0-.44.29-.71.78-.71h12.14c.52 0 .78.26.78.71 0 .47-.26.73-.78.73h-12.14c-.52.01-.78-.26-.78-.73zm28.51 5.29c-1.88-1.52-3.77-2.93-5.96-4.21-.47-.26-.58-.63-.34-1.05l.03-.03c.26-.42.58-.55 1.05-.37 2.43.86 4.5 1.88 6.85 3.22.44.26.55.65.26 1.1l-.81 1.18c-.29.42-.69.5-1.08.16zm-4.84 11.9c7.11-3.03 12.68-7.4 17.58-13.81.29-.39.65-.47 1.05-.24.37.24.45.6.18 1.02-4.16 6.85-9.94 12.34-17.71 15.59-.44.18-.81.05-1.02-.42l-.5-1.1c-.2-.47-.05-.83.42-1.04zm40.26 1.38c-1.96-3.06-3.87-5.49-6.46-7.9-2.75 3.43-6.56 6.17-10.98 8.34-.44.21-.78.16-.97-.21-.21-.37-.08-.68.37-.94 6.64-3.87 10.59-8.76 13.42-15.9h-10.2c-.94 0-.94-1.44 0-1.44h12.45c1.05.05 1.54.73 1.18 1.54-1.49 3.32-2.56 5.15-4.18 7.4 2.62 1.86 5.18 3.9 7.9 7.32.31.42.26.84-.16 1.12l-1.25.86c-.44.31-.84.26-1.12-.19zm29.4-16.84c0 .44-.24.68-.71.68h-9.05v1.31c.68 1.94 1.49 3.71 2.41 5.28 1.23-1.05 2.56-2.51 4-4.34.29-.39.63-.44.99-.16l.6.47c.37.29.42.6.13.97-1.31 1.67-2.9 3.27-4.73 4.71 1.99 2.93 4.05 5.28 6.25 7.04.34.29.39.63.1.99l-.37.44c-.29.34-.63.39-.99.1-3.56-2.8-6.33-6.2-8.4-10.15v8.58c0 2.69-.37 3.14-3.32 3.14-.63 0-1.75-.05-3.45-.13-.47-.03-.71-.26-.73-.71-.03-.47.24-.71.73-.68 1.54.08 2.56.1 3.09.1 1.02 0 1.05-.08 1.05-1.73V93.27h-9.62c-.47 0-.71-.24-.71-.71 0-.44.24-.68.71-.68h9.62v-2.62c0-.47.24-.71.71-.71h1.23c.47 0 .71.24.71.71v2.62h9.05c.46 0 .7.24.7.71zm-13.47 11.35c-1.78 1.67-4.37 3.61-7.61 5.44-.42.24-.73.11-.97-.29l-.16-.26c-.24-.39-.13-.71.26-.94 2.69-1.57 5.13-3.4 7.25-5.44.34-.34.68-.31.99.08l.31.42c.27.34.24.68-.07.99zm-5.5-8.32c1.41 1.49 2.62 2.83 3.56 4.03.29.34.26.68-.08.99l-.47.45c-.34.31-.71.29-.99-.1a62.069 62.069 0 00-3.43-4.03c-.31-.34-.31-.65.03-.99l.37-.37c.34-.34.7-.32 1.01.02zm12.59-7.48c1.31.68 2.48 1.39 3.53 2.12.39.26.44.6.18.97l-.05.05c-.26.37-.6.42-.99.18-1.49-.89-2.62-1.52-3.53-1.99-.42-.24-.52-.6-.21-.99l.1-.13c.26-.34.6-.42.97-.21zm32.19 21.66c.42.24.5.55.24.97l-.18.29c-.24.37-.58.47-.97.26-4.68-2.33-8.26-6.77-10.02-11.98-1.78 5.18-5.41 9.65-10.17 11.98-.39.21-.73.1-.97-.26l-.18-.29c-.26-.42-.18-.73.24-.97 5.94-3.37 9.68-9.96 9.68-17.97v-2.17c0-.47.24-.71.71-.71h1.25c.47 0 .71.24.71.71v2.17c-.01 8 3.73 14.59 9.66 17.97zm-63.38-86.73c.9.56 1.69 1.23 2.36 2.04 1.86 2.24 2.73 4.79 2.53 7.7-.32 4.74-4.07 8.83-8.78 9.53-1.02.15-2.06.16-3.09.17-2.31.02-4.63.01-6.94.01-.6 0-1.19-.04-1.73-.35-.96-.56-1.42-1.4-1.43-2.49-.01-2.44-.01-4.88-.01-7.31 0-7.03 0-14.07.01-21.1 0-.44.04-.9.16-1.32.33-1.09 1.4-1.81 2.57-1.81 2.29 0 4.58-.05 6.87.01 3.91.11 6.8 1.89 8.44 5.46 1.46 3.18 1.1 6.26-.81 9.18-.04.07-.09.13-.13.19.01.01.01.03-.02.09zm-11.62 3.81v10.17h5.54c.35 0 .7-.02 1.04-.06 3.12-.42 5.38-3.13 4.26-6.78-.51-1.64-2.34-3.22-4.54-3.29-1.58-.05-3.16-.03-4.75-.03-.51-.02-1.01-.01-1.55-.01zm0-13.26c-.01.08-.02.12-.02.17v7.34c0 .23.1.28.31.28 1.34 0 2.67.03 4.01-.01 1.31-.04 2.36-.67 3.09-1.72.85-1.23.94-2.6.28-3.95-.66-1.33-1.77-2.09-3.29-2.13-1.37-.03-2.74-.02-4.11-.02-.09 0-.16.02-.27.04zM176.5 33.09c.19-.57.38-1.14.56-1.71 1.22-3.73 2.43-7.45 3.66-11.18.48-1.45 1.91-2.2 3.31-1.75.75.24 1.27.75 1.54 1.49.37 1.05.72 2.12 1.07 3.18 1.03 3.11 2.06 6.21 3.09 9.32.07.21.16.42.24.63.03 0 .06-.01.09-.01.21-.58.42-1.16.64-1.75 1.37-3.72 2.74-7.44 4.1-11.17.35-.96.96-1.62 2-1.84 1.67-.36 3.54 1.56 2.76 3.53-.62 1.58-1.21 3.17-1.81 4.76-1.76 4.67-3.52 9.35-5.26 14.03-.48 1.3-1.8 2.15-3.1 1.77-.86-.25-1.46-.82-1.74-1.68-.7-2.07-1.38-4.15-2.07-6.23-.74-2.24-1.48-4.47-2.22-6.71a.744.744 0 00-.2-.32c-.25.76-.5 1.51-.75 2.27-1.15 3.57-2.31 7.14-3.46 10.71-.26.8-.72 1.45-1.49 1.82-1.07.5-2.24.19-3-.79-.23-.3-.42-.64-.55-.99-2.32-6.18-4.62-12.37-6.93-18.55-.65-1.73.24-3.35 2-3.64.99-.16 2.02.4 2.47 1.43.43 1 .79 2.04 1.17 3.07 1.22 3.3 2.43 6.6 3.65 9.9.05.13.1.27.16.4.01.01.04.01.07.01zm150.45-1.13h-7.41c-.64 0-.63 0-.46.6.63 2.25 2.18 3.62 4.3 4.41 2.21.82 4.36.63 6.45-.42.27-.13.52-.31.76-.5.75-.59 1.59-.75 2.51-.54.9.2 1.32.87 1.55 1.68.23.81.02 1.53-.61 2.06-.67.56-1.36 1.1-2.11 1.55-1.99 1.21-4.2 1.71-6.5 1.66-4.54-.09-8.02-2.08-10.33-6.01-1.24-2.11-1.86-4.41-1.69-6.84.31-4.42 2.33-7.91 6.17-10.19 2.28-1.35 4.83-1.76 7.47-1.37 2.08.31 4 1.03 5.62 2.39 2.43 2.03 3.86 4.64 4.29 7.77.08.58.13 1.18.06 1.76-.14 1.1-.98 1.84-2.09 1.93-.54.04-1.08.03-1.62.03-1.07 0-2.13-.01-3.2-.01-1.05.04-2.11.04-3.16.04zm5.53-4.15c.03-.04.07-.07.1-.11-.24-.46-.44-.94-.71-1.38-.77-1.22-1.87-2.08-3.12-2.74-1.45-.77-3.01-1.19-4.67-.83-2.66.57-4.47 2.11-5.32 4.72-.1.29-.01.37.26.36h.17c4.28-.01 8.55-.01 12.83-.02h.46zm-42.58 4.18c.13.8.42 1.48.8 2.13.78 1.34 1.96 2.21 3.39 2.78 1.26.49 2.55.66 3.89.5 1.37-.16 2.59-.62 3.7-1.46 1.57-1.19 3.71-.31 3.97 1.61.1.7-.18 1.27-.69 1.73-1.7 1.55-3.68 2.54-5.94 2.96-2.49.46-4.92.35-7.26-.68-3.89-1.72-6.22-4.73-7.16-8.82-1.19-5.17 1.4-11.15 6.72-13.7 1.94-.93 4.03-1.26 6.2-1.01 1.71.19 3.34.64 4.79 1.55 2.92 1.82 4.74 4.44 5.45 7.81.18.85.36 1.71.22 2.59-.18 1.13-1 1.89-2.15 1.96-.73.04-1.46.02-2.19.02h-13.21c-.15 0-.32.02-.53.03zm13.58-4.2c-.04-.17-.05-.32-.12-.44-.26-.48-.48-.99-.8-1.42-.86-1.18-2.03-1.98-3.33-2.59-.93-.44-1.92-.72-2.95-.71-1.99.02-3.69.75-5.05 2.21-.78.83-1.3 1.8-1.57 2.95h13.82zm-155.89-14.2h-.49c-2.19 0-4.38 0-6.57-.01-.64 0-1.28-.01-1.87-.33-1.11-.6-1.69-1.89-1.39-3.07.32-1.26 1.35-2.06 2.69-2.06h15.84c1.63 0 3.26.03 4.89-.01 1.45-.04 2.67 1.12 2.75 2.53a2.792 2.792 0 01-2.54 2.91c-.32.03-.65.03-.98.03-2.17 0-4.34.02-6.5-.01-.39 0-.44.13-.44.45 0 3.62-.01 7.25-.01 10.87 0 4.82 0 9.64-.01 14.46 0 .44-.03.91-.16 1.32-.39 1.22-1.59 1.94-2.87 1.78-1.24-.16-2.3-1.26-2.32-2.54-.04-1.83-.02-3.67-.03-5.5V14.35c.01-.23.01-.47.01-.76zm82.23 5.85c.49-.24.96-.49 1.44-.7 3.7-1.62 8.44-.63 11.12 2.31 1.93 2.12 2.91 4.6 2.9 7.47-.02 3.67-.01 7.34-.01 11.01 0 .65-.09 1.27-.47 1.82-.61.88-1.67 1.31-2.64 1.06-1.1-.29-1.91-1.2-2-2.27-.03-.4-.06-.8-.06-1.21 0-3.58-.03-7.16.03-10.74.05-2.69-2.32-4.72-4.43-4.94-2.17-.22-3.82.55-4.93 2.42-.45.75-.64 1.59-.64 2.47 0 3.7.01 7.4.02 11.11 0 .93-.19 1.79-.88 2.45-.79.75-1.73.99-2.76.59-1.05-.41-1.56-1.23-1.64-2.33-.03-.43-.02-.87-.02-1.31 0-5.89.01-11.79.01-17.68 0-.59.03-1.16.33-1.69 1-1.75 3.45-1.78 4.5-.05.05.06.08.12.13.21zm-20.63 10.77v-8.76c0-.48.01-.97.11-1.43.26-1.24 1.46-2.13 2.66-2.02 1.41.13 2.41 1.07 2.46 2.42.05 1.67.03 3.33.03 5v14.26c0 1.42-.77 2.44-2.06 2.73-1.52.35-3.04-.76-3.17-2.31-.04-.5-.05-1.01-.05-1.51V30.2c.01.01.01.01.02.01zm5.31-19.34c-.02 1.52-1.25 2.7-2.78 2.67-1.42-.03-2.62-1.27-2.61-2.72.01-1.5 1.29-2.74 2.8-2.71 1.44.03 2.61 1.28 2.59 2.76z"/><path class="st2" d="M0 80c.09.24.18.49.29.78.07-.09.14-.14.15-.19.77-6.91 7.66-11.61 14.4-9.82 2.72.72 5.14 2.02 7.32 3.78.48.39.72.41 1.09-.18 1.96-3.14 4.56-5.66 7.68-7.65.5-.32.7-.65.7-1.21 0-1.43-.04-2.87.06-4.3.15-1.99 2.14-3.22 4.02-2.52 1.15.43 1.79 1.32 1.89 2.53.07.79.06 1.59.05 2.39 0 .42.15.53.57.52 1.86-.03 3.72-.01 5.72-.01 0-.47-.02-.98 0-1.5.03-.61.01-1.23.14-1.82.33-1.42 1.8-2.44 3.16-2.27 1.51.19 2.63 1.47 2.67 3.1.03 1.35-.02 2.71.03 4.06.01.31.2.76.44.9 4.14 2.37 7.03 5.86 9.28 10.12.25-.38.48-.69.66-1.03 2.1-3.77 5.02-6.76 8.66-9.09.25-.16.46-.57.48-.88.07-1.32.01-2.66.08-3.98.1-1.96 1.33-3.23 3.04-3.22 1.63.01 2.87 1.42 2.93 3.36.02.76 0 1.53 0 2.24h6.35c0-.75-.02-1.55 0-2.36.05-1.59.84-2.7 2.16-3.09 1.71-.5 3.5.65 3.65 2.45.12 1.5.05 3.02.14 4.53.02.35.25.84.54 1.01 3.28 1.85 5.81 4.46 7.84 7.58.14.22.3.42.49.69.46-.34.86-.64 1.27-.93 2.67-1.92 5.52-3.44 8.89-3.65 4.97-.31 8.45 2.13 10.88 6.21 3.43 5.74 1.24 11.72-2.56 15.28a19.169 19.169 0 01-6.43 3.99c.23.26.4.47.6.66 2.2 2.13 3.87 4.56 4.5 7.63 1.23 5.98-2.43 11.47-8.44 12.49-2.7.46-5.17-.36-7.45-1.77-2.3-1.42-4.09-3.38-5.75-5.47-.2-.25-.39-.5-.64-.82-.48.51-.9 1.01-1.37 1.46-3.03 2.91-6.07 5.81-9.12 8.69-.49.46-1.12.79-1.69 1.18h-1.28c-.61-.38-1.28-.68-1.82-1.15-2.18-1.91-4.45-3.75-6.43-5.84-2.03-2.15-4.36-3.47-7.27-3.95-5.09-.83-9.53.18-13.19 4.06-2.4 2.55-4.93 5-7.93 6.88h-1.28c-.65-.42-1.36-.76-1.93-1.26-2.35-2.11-4.69-4.25-6.98-6.43-1.17-1.11-2.23-2.33-3.4-3.57-.2.25-.36.44-.52.64-2.13 2.69-4.48 5.14-7.7 6.55-5.67 2.49-12.1-.43-13.8-6.33-1.14-3.95-.16-7.56 2.25-10.8.71-.95 1.59-1.77 2.48-2.74-.32-.17-.62-.35-.94-.5-2.4-1.1-4.56-2.56-6.29-4.55C1.68 88.97.28 86.91.61 84.17c.01-.1-.02-.21-.05-.46-.22.66-.39 1.18-.56 1.71V80zm24.82 7.65c10.7-3.88 21.22-3.88 31.76-.06.03-.32.07-.47.05-.62-.77-5.67-2.98-10.5-7.66-14.16-3.96-3.09-10.9-3.72-15.46-.71-4.37 2.89-6.86 7.01-8.07 11.99-.26 1.1-.39 2.23-.62 3.56zm37.92-.02c10.66-3.84 21.2-3.89 31.67-.07.1-.22.14-.27.13-.32-.67-5.86-2.87-10.91-7.82-14.45-4.45-3.18-9.23-3.72-14.15-1.3-3.75 1.84-6.19 5.02-7.93 8.74-1.07 2.28-1.59 4.69-1.9 7.4zm-37.19 6.04c.78 2.27 1.9 4.22 3.14 6.1.29.44.61.29.96.11 2.42-1.22 4.99-1.99 7.67-2.35 5.08-.69 9.93.05 14.51 2.36.55.28.87.18 1.16-.33.49-.85 1.06-1.66 1.51-2.53.56-1.07 1.03-2.19 1.57-3.36-10.24-3.85-20.32-4.02-30.52 0zm37.89 0c.12.33.17.59.29.81.88 1.66 1.78 3.31 2.64 4.98.31.59.62.67 1.25.38 7.42-3.44 14.85-3.48 22.24.11.49.24.74.13.96-.28.79-1.41 1.63-2.8 2.35-4.24.85-1.71.82-1.76-.99-2.38-6.35-2.2-12.85-2.9-19.51-1.89-3.13.47-6.17 1.3-9.23 2.51zm36.7-9.46c.08 1.81.41 3.83 1.76 5.55.69.88 1.58 1.29 2.67.98 1.17-.33 2.38-.64 3.45-1.18 1.97-.99 3.71-2.29 4.75-4.33 1.86-3.68-.6-8.29-4.69-8.79-4.44-.53-8.02 2.85-7.94 7.77zm-80.87-.46c-.06-.45-.1-1.15-.25-1.81-.83-3.62-5.05-6.27-8.48-5.36-4.37 1.16-6.04 6.62-2.98 10.11 1.83 2.09 4.14 3.57 6.98 4.02 1.73.28 2.56-.1 3.43-1.61.92-1.58 1.22-3.32 1.3-5.35zM19 98.07c-.49.12-1.01.16-1.45.37-2.2 1.06-4.08 2.51-5.37 4.6-.87 1.4-1.17 2.97-.75 4.59.73 2.81 3.82 3.88 6.57 2.19 1.39-.86 2.7-1.91 3.89-3.03 1.27-1.2 2.21-2.96.84-5.33-.35-.6-.67-1.21-1-1.81-.59-1.04-1.51-1.52-2.73-1.58zm84.81 12.56c1.78.03 3.25-.92 3.92-2.48.76-1.77.36-3.44-.56-5.01-1.25-2.13-3.16-3.55-5.3-4.69-.9-.47-1.86-.44-2.78-.07-1.49.59-3.37 4.4-2.97 5.95.01.03.02.05.02.08.32 2.3 5.18 6.09 7.04 6.17.23.02.47.04.63.05zm-33.6-6.22c.25.33.41.6.62.82 1.74 1.75 3.52 3.47 5.23 5.25 1.59 1.66 4.13 1.31 5.49-.12 1.65-1.74 3.31-3.45 4.96-5.18.19-.2.34-.43.61-.79-5.72-2.09-11.25-2.43-16.91.02zm-37.99.25c2.16 2.11 4.19 4.21 6.36 6.16 1.27 1.14 3.15 1.08 4.54-.18 2.04-1.86 3.91-3.91 5.84-5.88.07-.07.09-.19.13-.28-4.29-2.35-13.03-2.37-16.87.18zM59.58 0c12.61.31 23.43 4.39 32.25 13.28 2.52 2.54 1.97 6.29-1.15 7.77-1.66.79-3.27.54-4.79-.41-.4-.25-.75-.6-1.09-.93-3.85-3.74-8.27-6.58-13.38-8.29-4.6-1.54-9.34-2.01-14.18-1.74-7.61.41-14.27 3.17-20.17 7.88-1.04.83-1.97 1.78-2.97 2.66-2.06 1.8-4.82 1.72-6.6-.17-1.83-1.95-1.79-4.85.13-6.73C34.73 6.33 43.24 2.1 53.09.55c1.02-.16 2.06-.24 3.1-.33 1.2-.11 2.39-.16 3.39-.22z"/><path class="st2" d="M60.03 19.8c6.84.29 13.12 2.54 18.19 7.69 1.24 1.26 1.72 2.74 1.17 4.45-.54 1.67-1.75 2.63-3.48 2.9-1.23.19-2.29-.24-3.26-1-1.11-.87-2.24-1.7-3.38-2.54-5.36-3.93-15.07-4.23-21.43 1.71-.41.38-.83.75-1.28 1.08-1.62 1.16-3.76 1.01-5.21-.34-1.5-1.39-1.82-3.62-.72-5.29.35-.53.78-1.01 1.25-1.44 5.02-4.71 11.02-7.01 18.15-7.22zm-.35 18.92c3.57.03 6.44 2.98 6.4 6.59-.04 3.33-3.09 6.33-6.4 6.3-3.4-.03-6.37-3.12-6.31-6.56.06-3.46 2.94-6.35 6.31-6.33z"/></svg>