<svg width="24" height="24" fill="none" xmlns="http://www.w3.org/2000/svg"><path d="M12 6.462a5.538 5.538 0 100 11.076 5.538 5.538 0 000-11.076zm0 9.23a3.692 3.692 0 110-7.383 3.692 3.692 0 010 7.383zM17.538 0H6.462A6.468 6.468 0 000 6.462v11.076A6.468 6.468 0 006.462 24h11.076A6.468 6.468 0 0024 17.538V6.462A6.468 6.468 0 0017.538 0zm4.616 17.538a4.615 4.615 0 01-4.616 4.616H6.462a4.615 4.615 0 01-4.616-4.616V6.462a4.615 4.615 0 014.616-4.616h11.076a4.615 4.615 0 014.616 4.616v11.076zM19.384 6a1.385 1.385 0 11-2.77 0 1.385 1.385 0 012.77 0z" fill="#382A3F"/></svg>