<svg width="32" height="36" fill="none" xmlns="http://www.w3.org/2000/svg"><path d="M16 10.461A5.54 5.54 0 1021.538 16 5.545 5.545 0 0016 10.461zm0 9.231a3.691 3.691 0 110-7.383 3.691 3.691 0 010 7.383zM21.538 4H10.461A6.468 6.468 0 004 10.461v11.077A6.468 6.468 0 0010.461 28h11.077A6.468 6.468 0 0028 21.538V10.461A6.468 6.468 0 0021.538 4zm4.616 17.538a4.615 4.615 0 01-4.616 4.616H10.461a4.615 4.615 0 01-4.615-4.616V10.461a4.615 4.615 0 014.615-4.615h11.077a4.615 4.615 0 014.616 4.615v11.077zM23.384 10a1.385 1.385 0 11-2.77 0 1.385 1.385 0 012.77 0z" fill="#382A3F"/></svg>