<svg width="27" height="19" fill="none" xmlns="http://www.w3.org/2000/svg"><g clip-path="url(#clip0_1311_2334)" stroke="#DAADFF" stroke-width=".5"><path d="M12.644 18.4l-.121-.003-6.807-9.831-.013-.041.015-.064.11.031.013-.009.02.02v.008l6.726 9.718L26.271.349 1.032 1.539l3.535 5.103-.125.082L.833 1.513l.058-.115L26.424.194l.063.118L12.644 18.4z"/><path d="M3.805 15.31l.628-8.682.05-.016L26.406.197l.05.138L5.852 8.536l-.003.008-.008-.003-.024.009-.007-.018-.03-.009-.078.002.003-.022.022-.076.035-.013L24.944.78 4.576 6.739l-.598 8.273 4.264-2.928.085.121-4.522 3.105z"/><path d="M5.72 8.463L3.816 15.14l.145.04 1.902-6.679-.145-.04z"/></g><defs><clipPath id="clip0_1311_2334"><path fill="#fff" transform="translate(.833 .194)" d="M0 0h25.654v18.206H0z"/></clipPath></defs></svg>