<svg width="764" height="302" fill="none" xmlns="http://www.w3.org/2000/svg"><path d="M37.433 298.594L3.745 246.767l689.939-83.058L37.433 298.594z" fill="#7CE0FF"/><g clip-path="url(#clip0_21_49)"><path d="M762.873 134.064l-51.308 46.273-9.05-21.071-5.273-12.283.06-.121 65.571-12.798z" fill="#fff"/><path d="M762.873 134.064l-65.571 12.798-.06.121-9.424 18.805 6.743-25.049.001-.004 68.311-6.671z" fill="#D1D1D1"/><path d="M762.873 134.064l-68.311 6.671-7.596-17.683 75.907 11.012z" fill="#fff"/><path d="M697.242 146.983l5.273 12.283-14.697 6.522 9.424-18.805z" fill="#F2F2F2"/></g><g clip-path="url(#clip1_21_49)" fill="#382A3F"><path d="M405.755 123.843c-1.499-.039-3.432-.883-3.965-1.728-.956-1.524-1.5-3.364-2.068-5.305-.254-.863-.497-1.726-.79-2.564l-.293-.864-1.072.022a4.117 4.117 0 01-.554-.04c-.214-.018-.428-.036-.629-.041-.454-.012-1.111.021-1.651.447-.619.488-1.231.749-1.722.736-.517-.014-.962-.353-1.311-1.004-.769-1.443-1.146-3.405-.966-4.986.129-1.067 1.158-2.325 2.082-3.434l.144-.185c2.097-2.552 2.764-10.215.56-12.74-.759-.864-2.272-1.357-3.381-1.386-.592-.016-1.099.084-1.496.313-.461.265-.868.393-1.208.384-.718-.019-1.293-.714-2.024-1.69a24.738 24.738 0 00-.427-.553c-.439-.553-.662-1.213-.583-1.79.065-.565.393-1.073.973-1.524.463-.353.89-.77 1.304-1.162.711-.686 1.384-1.323 2.031-1.495 3.327-.883 2.669-3.658 2.44-4.57-.579-2.42-1.272-4.856-1.942-7.203-.359-1.244-.704-2.487-1.05-3.73-.241-.9.046-2.253.719-3.38.501-.844 1.147-1.444 1.693-1.568.343-.08.697-.12 1.05-.111 1.953.05 3.595 1.378 3.902 3.162.284 1.657.543 3.326.815 4.995.454 2.883.918 5.854 1.498 8.765.256 1.279 1.499 2.948 2.89 3.3 3.545.886 5.461 3.316 6.383 8.1.132.708-.145 1.658-.476 2.77-.194.637-.387 1.3-.545 2.025l-.562 2.668 2.393-1.323c1.663-.913 3.276-1.815 4.862-2.693 4.211-2.345 8.178-4.546 12.23-6.656.691-.36 1.603-.499 2.552-.65a18.773 18.773 0 001.965-.377c2.895-.78 5.49-1.128 7.934-1.064 3.138.082 5.968.849 8.641 2.329a61.617 61.617 0 017.106 4.58c1.867 1.422 3.765 2.14 5.794 2.192 1.487.04 3.033-.273 4.741-.971 1.555-.627 3.217-.999 4.98-1.393 1.535-.35 3.121-.7 4.661-1.25 2.546-.904 5.071-1.97 7.519-3.002 1.81-.759 3.672-1.554 5.532-2.26l.471-.177c3.402-1.309 6.918-2.665 10.447-3.58a4.66 4.66 0 011.341-.166c1.853.049 3.218 1.356 3.469 3.34.273 2.097-1.79 3.831-3.946 4.29-1.953.416-3.813 1.135-5.622 1.843a80.37 80.37 0 01-2.471.93c-1.043.363-2.099.7-3.155 1.05-2.162.7-4.401 1.434-6.556 2.348-8.493 3.63-15.334 5.29-22.196 5.374l-.593-.015c-4.99-.131-8.746-2.61-11.025-4.658-2.748-2.477-5.754-3.727-9.207-3.817-3.037-.08-6.035.76-8.567 1.601-4.083 1.341-7.945 3.406-11.68 5.398l-.933.492c-3.466 1.849-6.699 3.942-10.253 6.292-1.181.788-1.008 2.832-.837 3.542.374 1.609.799 3.206 1.223 4.804.563 2.118 1.136 4.324 1.596 6.489.158.722.041 1.323-.323 1.754-.404.481-1.105.765-1.874.744h-.012l.024.026zM48.322 185.917a5.44 5.44 0 01-.767-.083c-.389-.073-1.068-.62-1.67-1.693-.856-1.521-1.222-3.432-.83-4.442.488-1.284.73-2.348.768-3.329.159-4.617 1.04-8.422 2.76-11.966.72-1.479.977-3.097 1.22-4.665.15-.94.287-1.843.524-2.681.418-1.525.937-3.073 1.43-4.571.425-1.273.85-2.559 1.224-3.846.207-.687.123-1.357.063-1.95-.02-.202-.04-.404-.047-.606l-.052-1.852-1.697.736a264.894 264.894 0 01-4.832 2.039c-3.57 1.481-7.268 3.021-10.733 4.869-5.577 2.99-11.038 6.398-16.32 9.684l-2.512 1.559c-1.757 1.1-3.466 2.302-5.123 3.467-1.387.971-2.814 1.992-4.25 2.911-.32.206-.727.308-1.193.296-1.235-.032-2.626-.862-3.377-2.028-.558-.87-.76-1.808-.574-2.659.17-.738.641-1.368 1.359-1.803 2.307-1.413 4.601-2.826 6.895-4.239 7.23-4.47 14.716-9.096 22.29-13.23 3.53-1.934 7.429-3.444 11.187-4.907 2.498-.98 5.096-1.982 7.585-3.113 2.744-1.25 5.348-2.932 5.854-6.823l.08-.69c.385-3.113.752-6.05 3.287-7.998l.36-.28c.515-.402 1.146-.902 1.512-.892.227.006.497.29.644.457.416.464.885.854 1.355 1.232 1.42 1.145 1.837 1.572 1.12 2.976-.518 1.006-.661 2.123-.831 3.315-.078.552-.156 1.142-.286 1.78l-.278 1.454 1.474.038c1.613.043 3.177.058 4.69.073 1.424.012 2.824.023 4.197.059 2.08.055 3.767.149 5.326.316 3.421.354 7.628 3.423 8.733 7.96 1.573 6.388-.971 11.559-3.944 16.732a208.036 208.036 0 00-1.839 3.276c-1.601 2.88-3.242 5.846-5.154 8.529-1.322 1.841-3.317 3.375-5.247 4.861l-.76.585c-1.283-.084-3.86-1.877-4.14-2.69-.916-2.631.604-8.182 2.692-9.902.683-.562 1.103-.702 1.204-.712.264.045.553.065.83.072 2.345.062 3.951-1.092 4.922-3.51.567-1.42 1.223-2.864 1.852-4.258.964-2.128 1.955-4.331 2.72-6.602.478-1.398.913-5.479-.89-6.42-2.128-1.101-4.659-1.747-7.141-1.812-.29-.007-.58-.015-.858.003-1.716.056-3.356.542-4.945 1.029-1.055.325-2.06.626-3.073.801-2.977.514-3.732 2.408-4.236 4.309-.979 3.664-2.148 7.373-3.288 10.944a355.945 355.945 0 00-1.928 6.208c-.401 1.349-.715 2.726-1.014 4.053a102.96 102.96 0 01-.441 1.915c-.142.588-.296 1.176-.45 1.764-.364 1.375-.742 2.801-.956 4.256-.125.891.005 1.725.135 2.535.076.455.14.885.155 1.288.022.605.094 1.249.165 1.893.133 1.175.31 2.64-.083 3.184-.955 1.309-2.572 2.854-4.802 2.795l-.05-.001zm551.206-11.118c-.59-.085-1.332-.782-1.814-1.695-.529-.99-.664-2.079-.335-2.746 1.537-3.203 2.968-5.604 4.519-7.547 2.586-3.238 5.285-6.472 7.904-9.595 3.294-3.928 6.694-8.004 9.895-12.125 4.17-5.381 8.198-11.007 12.093-16.436 1.693-2.353 3.375-4.719 5.08-7.059.24-.319.431-.689.598-1.086.862-2.07 1.5-3.884.645-5.24-.856-1.369-2.803-1.583-5.068-1.721l-.958-.037-1.675-.065-.076.01c-8.167.754-16.835 1.778-25.205 5.17-4.935 2-10.076 3.791-15.051 5.526a537.174 537.174 0 00-7.611 2.69c-.78.285-1.477.686-2.148 1.075l-.503.283c-1.071.601-2.142.9-3.099.863-1.877-.073-2.999-1.389-3.077-3.622-.028-.895 1.822-3.066 3.452-3.758 7.516-3.198 15.344-5.956 22.071-8.302 4.463-1.553 9.276-3.017 15.614-4.761 2.78-.762 5.737-1.214 8.592-1.645l.406-.06c2.589-.391 5.254-.804 7.842-.829.365.001.744.003 1.109.018 4.233.164 7.927 1.504 10.973 3.965.954.767 1.774 2.399 1.875 3.7.414 5.257-1.047 10.088-4.329 14.344-2.218 2.875-4.377 5.852-6.47 8.731l-2.052 2.818c-.52.71-1.18 1.806-.95 3.024.254 1.257 1.309 2.029 2.085 2.5 3.599 2.192 7.164 4.611 10.605 6.961a253.87 253.87 0 002.999 2.031c.775.522 1.446 1.77 1.658 3.113.162 1.027.051 1.955-.308 2.419-.691.906-1.731 1.054-2.475 1.026-1.058-.042-2.202-.464-3.233-1.209-5.068-3.648-10.348-7.065-14.903-9.975-.307-.201-.695-.305-1.135-.322-.882-.034-2.17.319-2.816 1.038-1.949 2.116-3.791 4.375-5.579 6.56l-.926 1.123c-.636.782-1.284 1.55-1.933 2.331-1.958 2.356-3.983 4.784-5.822 7.308-1.239 1.703-2.305 3.815-3.171 6.289-.709 2.025-5.039 5.032-7.13 4.951l-.177-.007.014-.025zm-294.074-33.738a12.052 12.052 0 01-4.663-1.066c-2.669-1.166-4.388-2.936-4.987-5.105-.622-2.245.027-4.859 1.82-7.369 3.495-4.894 8.824-7.097 13.528-9.039.803-.331 1.679-.535 2.618-.75.824-.192 1.674-.384 2.514-.677.942-.34 2.358-1.411 2.403-2.669.285-7.498-.432-13.347-2.267-18.419l-.399-1.106-4.284 1.286c-2.555.764-5.008 1.506-7.473 2.222-.419.127-.839.255-1.271.395-1.208.383-2.341.757-3.439.791l-.327-.009c-1.79-.046-2.726-.902-2.809-2.541-.135-2.56.471-3.551 2.452-4.079 4.102-1.088 8.516-2.547 13.891-4.585 1.07-.412 1.754-.986 2.09-1.77.484-1.159-.004-2.28-.409-3.197-.178-.42-.393-.88-.398-1.156-.021-.63-.106-1.262-.191-1.869-.138-.973-.288-1.984-.021-2.557.481-1.032 1.517-2.063 2.538-2.036.252.007.502.076.751.196 1.233.612 2.533 1.98 3.584 3.746.291.473.305 1.355.329 2.363.009.617.03 1.272.1 1.967l.169 1.73 1.595-.715c1.008-.452 1.979-.917 2.949-1.37 2.286-1.086 4.444-2.113 6.684-2.885.674-.234 1.51-.351 2.341-.33.731.02 1.434.14 2.021.356 1.536.569 1.71 2.135 1.361 3.423-.264.937-.805 1.855-1.266 2.107-2.585 1.456-5.343 2.731-8.011 3.984l-1.468.691c-.345.155-.776.257-1.436.416-.406.09-.888.203-1.46.365l-1.041.275 2.7 22.585 1.239-.131c1.568-.173 3.061-.361 4.516-.55 3.1-.397 6.011-.774 8.901-.875 2.184-.081 4.353-.087 6.457-.032 2.622.069 5.202.237 7.692.516.433.339 1.237 1.884 1.312 2.868.066.845-.155 1.582-.636 2.124-.532.603-1.375.984-2.385 1.045-.733.044-1.528.061-2.523.035-.605-.016-1.197-.031-1.802-.072-.617-.017-1.234-.058-1.839-.074-1.31-.034-2.333-.01-3.293.078-2.946.275-5.885.79-8.735 1.282-1.229.22-2.47.426-3.712.633a8.288 8.288 0 00-1.959-.316c-3.843-.1-4.761 3.162-5.429 5.55a16.97 16.97 0 01-.455 1.486c-2.217 6.188-6.238 9.973-12.62 11.934-2.11.638-3.858.919-5.521.876l-.026.024zm9.981-16.146c-.316.03-.643.021-.971.025-.883.002-1.879.001-2.786.431a34.582 34.582 0 00-5.791 3.487c-.811.609-1.337 1.451-1.798 2.207-.185.298-.356.583-.552.855l-1.139 1.582 1.92.365c.314.058.651.168.989.277.638.206 1.301.412 1.931.429.504.013.936-.102 1.307-.331 2.142-1.354 4.175-2.925 6.132-4.448a134.28 134.28 0 012.162-1.656l.849-.645-1.418-2.682-.821.067-.014.037zM209.194 241.494c-1.197-.047-2.215-.792-2.81-2.049-.396-.834-.444-2.209-.177-2.59 1.257-1.815 2.724-3.547 4.152-5.23.886-1.049 1.785-2.098 2.634-3.186 1.527-1.944 3.09-3.861 4.653-5.79 4.293-5.288 8.719-10.76 12.501-16.547a47.78 47.78 0 011.162-1.655c2.027-2.819 4.535-6.325 3.471-11.102l-.182-.839-.853-.121a28.683 28.683 0 00-2.954-.278c-3.577-.139-7.333.408-11.799 1.721-2.08.613-4.279 1.031-6.414 1.44-1.411.273-2.873.556-4.312.891l-1.298.302c-4.023.94-8.186 1.912-12.232 3.103-3.139.924-6.236 2.051-9.243 3.156-1.011.364-2.022.741-3.046 1.104l-2.865 1.023c-4.81 1.703-9.786 3.475-14.638 5.29-1.076.412-2.117.913-3.133 1.415-1.672.817-3.254 1.6-4.879 1.852-.957-.037-2.566-1.158-3.639-2.447-.275-.401-.25-2 .043-2.404 1.895-1.703 4.171-3.126 6.374-3.973 8.08-3.1 16.691-6.193 25.576-9.212l2.685-.916c4.974-1.722 10.127-3.487 15.285-4.408 2.312-.414 4.582-1.044 6.788-1.652 4.081-1.126 7.945-2.198 12.064-2.039.315.013.642.025.969.063l.504.02c1.335.051 2.642-.137 3.923-.327 1.205-.167 2.347-.337 3.418-.296.29.012.579.035.855.084 2.883.477 5.727 1.645 7.797 3.225 2.059 1.566 2.855 9.004 1.298 12.068-3.865 7.597-8.287 14.253-13.544 20.335-3.091 3.584-6.039 7.374-8.894 11.043-1.739 2.238-3.466 4.476-5.242 6.675-1.219 1.514-2.638 2.316-3.986 2.264l-.012-.013zm-37.745-82.762c-1.726-.045-3.661-1.783-3.686-4.202-.031-2.645.416-5.29.893-8.086.208-1.203.403-2.394.573-3.598l.25-1.832c.439-3.263.89-6.537 1.366-9.799.262-1.819.956-2.77 3.985-2.88l.366.01c1.361.036 2.648.46 2.94 3.3.081.745-.181 1.62-.445 2.545-.194.675-.389 1.362-.496 2.09-.139.953-.139 1.923-.141 2.955-.012.478-.001.995-.015 1.549l-.074 2.818 2.141-1.832c1.2-1.027 2.324-2.068 3.41-3.072 2.313-2.143 4.497-4.151 6.919-5.623 2.076-1.256 4.5-1.847 7.235-1.775 1.512.039 3.082.294 4.671.739 2.003.569 3.999 1.402 5.945 2.208 1.996.833 4.055 1.68 6.195 2.29.426.125.891.187 1.37.2 1.487.039 3.062-.424 4.46-.84l.445-.14c6.088-1.779 11.285-5.232 16.303-8.551a308.613 308.613 0 013.413-2.24c.706-.46 1.81-.733 2.793-.707.315.008.616.053.867.123.21.169.783 1.38.907 2.429.236 2.084.256 3.217-1.837 4.183-1.851.845-3.436 2.138-4.982 3.395-1.495 1.22-2.912 2.366-4.482 3.081-.676.309-1.353.619-2.029.941-4.086 1.908-7.941 3.696-12.584 4.254-1.239.144-2.489.2-3.712.168-5.507-.145-10.334-2.147-14.743-4.277-.71-.346-1.688-.561-2.658-.586-.756-.02-2.158.057-3.099.825-3.685 3.001-7.189 6.309-10.577 9.507l-1.383 1.311a94.988 94.988 0 00-3.199 3.216c-1.958 2.039-3.812 3.967-5.971 5.535-.373.28-.818.406-1.322.393l-.012-.025zm284.093 60.986a3.023 3.023 0 01-.952-.188c-1.008-.367-1.727-1-2.086-1.832-.37-.884-.303-1.939.195-3.079l.774-1.746c2.78-6.279 5.656-12.781 8.861-18.968 4.541-8.768 9.683-18.696 13.237-29.014.241-.683.619-3.579-.949-4.143-.858-.323-2.153-.752-3.413-.8a5.316 5.316 0 00-1.533.154c-4.653 1.256-9.217 2.805-13.08 4.167-1.061.374-2.077.864-3.067 1.329-1.311.63-2.545 1.224-3.818 1.528a8.2 8.2 0 01-2.203.204c-.945-.037-1.858-.236-2.553-.552a1.603 1.603 0 01-.92-.994c-.25-.702-.123-1.705.313-2.545.628-1.21 2.038-2.453 3.357-2.956 5.365-2.034 11.028-3.931 17.295-5.804 1.838-.546 3.741-.825 5.758-1.125.851-.13 1.713-.248 2.564-.404 6.91 1.074 9.601 3.899 9.904 10.386.084 1.742-.726 3.764-1.525 5.509-1.792 3.911-3.686 7.856-5.512 11.665-2.005 4.193-4.078 8.521-6.049 12.829-3.351 7.352-6.571 14.899-9.693 22.21l-.611 1.425c-.68 1.599-2.58 2.785-4.319 2.717l.025.027zm-108.589-20.675c-1.776-.069-2.141-1.066-2.267-1.398-.4-1.074-.411-2.095-.011-2.961.455-.99 1.431-1.771 2.813-2.284 4.108-1.504 8.326-2.915 12.416-4.281l3.413-1.14c1.419-.474 2.851-.972 4.27-1.459 3.747-1.291 7.634-2.627 11.498-3.699 3.443-.95 7.03-1.705 10.503-2.439 1.844-.382 3.689-.777 5.522-1.197 1.769-.41 3.539-.833 5.309-1.255a313.884 313.884 0 016.888-1.61c3.117-.686 6.296-1.318 9.372-1.93 1.272-.253 2.531-.506 3.789-.76.413.092.814.158 1.203.223 1.893.313 2.945.492 3.746 2.615.641 1.7.052 2.244-.997 3.249a43.06 43.06 0 00-.773.763c-.264.28-.947.669-2.748.914-1.319.176-2.698.274-4.027.373-2.049.147-4.175.304-6.248.74-4.427.937-8.874 2.075-13.181 3.18-2.025.514-4.052 1.04-6.077 1.541-.968.239-1.948.453-2.915.668-1.451.321-2.952.654-4.432 1.062l-1.683.464c-7.192 1.989-14.64 4.043-21.928 6.217-2.769.825-5.498 1.89-8.137 2.922l-2.024.791c-1.229.468-2.361.702-3.28.666l-.014.025zm-37.425 27.471c-1.663-.064-2.612-.618-2.548-3.261.102-3.913.256-7.901.418-11.749l.177-4.541.645-16.615.289-7.459c.291-7.824.593-15.925 1.003-23.883.056-1.119.719-2.605 1.327-2.984.866-.546 1.735-.827 2.478-.799 1.638.064 2.65 1.615 2.56 3.942-.442 11.698-.896 23.408-1.35 35.106l-.353 9.094-.204 5.245c-.183 4.729-.354 9.459-.588 14.186-.16 3.143-1.09 3.699-3.626 3.702l-.265-.01.037.026zM537.874 75.323c-.226-.043-.91-.414-1.73-1.367-.991-1.16-1.392-2.228-1.344-2.617.302-2.85.929-5.63 1.521-7.98.297-1.227.693-2.413 1.117-3.661.384-1.174.794-2.384 1.103-3.61.87-3.365 1.983-7.818 2.896-12.353.855-4.233 1.413-7.732 1.764-10.996.371-3.592.63-3.837 3.818-3.754l.265.007c1.046.028 2.028.57 2.698 1.469.706.95.952 2.153.659 3.228-.616 2.338-1.158 4.73-1.672 7.045a216.73 216.73 0 01-1.308 5.645 384.12 384.12 0 01-2.141 8.078c-.461 1.713-.935 3.426-1.383 5.152-.14.525-.192 1.04-.255 1.542-.032.238-.051.49-.095.728-.167 1.066-.295 2.133-.437 3.2-.32 2.61-.625 5.083-1.441 7.378-.354.986-2.153 2.26-4.036 2.879l.001-.013zm-98.569 70.614c-.756-.029-1.336-.354-1.852-1.029-.733-.948-1.146-2.652-.86-3.523.358-1.107 1.737-2.502 2.666-2.706 5.104-1.162 10.365-2.142 15.436-3.105 2.453-.459 4.905-.918 7.346-1.39 3.712-.725 7.413-1.502 11.356-2.319l4.997-1.028c.305.277.636.529.954.793.978.794 1.993 1.614 2.264 2.443.293.906-.406 2.983-1.253 3.693l-.131.109c-1.253 1.072-2.452 2.084-3.952 2.026-.629-.025-1.29-.227-2.032-.608-.631-.327-1.356-.506-2.225-.54-1.512-.059-3.167.343-4.759.722-.649.152-1.286.316-1.896.431-3.813.721-7.657 1.592-11.374 2.443l-2.074.474c-.942.216-1.896.405-2.837.596-2.657.539-5.404 1.088-7.968 2.135-.679.276-1.289.403-1.818.382l.012.001zm88.119 21.834c-.907-.035-1.834-.525-2.45-.901-.629-.377-1.289-1.889-1.286-2.948.008-.528.746-1.671 1.693-2.352 3.751-2.689 7.626-5.361 11.373-7.949 2.709-1.873 5.431-3.745 8.129-5.643 1.038-.728 2.016-1.56 2.943-2.355a50.027 50.027 0 012.241-1.841c.455-.347 1.046-.614 1.662-.893.205-.092.398-.186.604-.278 1.695.191 2.687 1.288 3.28 3.578.164.637-.703 2.492-1.65 3.186-4.104 3.016-8.393 5.936-12.54 8.76-2.268 1.55-4.536 3.1-6.792 4.662-1.724 1.193-3.494 2.598-5.415 4.3-.561.495-1.125.712-1.792.686v-.012zm-393.257-29.709a80.124 80.124 0 00-1.829-.451c-1.403-.352-2.869-.705-4.245-1.144-1.951-.63-3.888-1.285-5.826-1.94-3.162-1.078-6.425-2.183-9.704-3.125-.663-.194-1.329-.287-1.982-.392-1.96-.291-2.798-.527-3.209-1.696-.528-1.5-.543-3.339-.062-4.371.36-.759 1.546-.791 1.899-.781.403.01.805.071 1.218.195 2.278.652 4.608 1.242 6.876 1.817 1.629.408 3.257.828 4.872 1.261 1.966.53 3.931 1.098 5.897 1.653 2.541.721 5.069 1.442 7.624 2.113 2.292.602 2.891 1.801 2.347 4.759-.339 1.867-1.226 2.058-3.875 2.089l-.001.013zM282.7 197.445c-1.373-.053-2.8-.663-3.109-1.153-1.188-1.898-2.078-4.326-2.634-7.232-.44-2.323-.622-4.761-.795-7.136-.051-.644-.089-1.301-.139-1.945l.177-.019.188-4.83c.17-4.062.781-4.202 3.339-4.115 2.506.097 4.014 1.869 3.995 4.639l-.018.478c-.005 2.078-.013 4.22-.244 6.277-.36 3.437.37 6.728 2.221 10.063.519.927.471 2.172-.126 3.257-.571 1.036-1.517 1.68-2.528 1.729-.113-.005-.227.004-.34-.001l.013-.012zm2.361-50.559a8.165 8.165 0 01-.767-.058c-3.043-.369-4.78-1.447-5.82-3.615-.885-1.836-1.911-3.613-2.912-5.327-1.11-1.918-2.256-3.9-3.174-5.926-1.002-2.204-1.48-4.672-1.337-6.759.044-.716 1.434-2.254 2.463-2.554.47-.139.913-.203 1.304-.193.693.018 1.684.246 2.319 1.987 1.601 4.361 3.735 8.573 5.798 12.631l.096.179c.444.88 1.209 1.492 1.889 2.026.408.325.803.638 1.072.96.648.785 1.193 1.655 1.773 2.59.17.269.34.525.509.794-.604 2.83-1.537 3.322-3.2 3.278l-.013-.013zm75.819-77.683c-1.008-.027-2.438-.329-3.309-2.693-1.072-2.887-2.296-5.765-3.471-8.553-.677-1.617-1.366-3.234-2.029-4.85-.415-1.032-.424-2.14-.008-3.099a3.599 3.599 0 011.993-1.924c.204-.083.432-.115.671-.109 1.374.036 2.966 1.337 3.63 2.979.96 2.33 1.996 4.673 3.009 6.929a340.463 340.463 0 012.142 4.866c.321.751.552 1.576.689 2.108.023.089.046.165.069.241-.116 3.46-1.09 4.077-3.172 4.123l-.227-.006.013-.012zm167.05 79.339c-.629-.024-1.585-.427-2.407-1.025-.884-.639-1.701-1.364-2.566-2.141-1.256-1.119-2.549-2.278-4.067-3.13-1.926-1.095-3.011-2.397-3.038-3.658-.03-1.172.889-2.422 2.596-3.502l.815-.51c.804.409 1.608.818 2.413 1.215 2.389 1.188 4.641 2.309 6.758 3.676 2.707 1.755 3.706 3.343 3.446 5.487-.26 2.131-1.517 3.33-3.735 3.584-.063-.003-.126.008-.202.005l-.013-.001zM349.44 71.699c-.504-.014-1.093-.168-1.766-.475-1.769-.802-2.751-2.326-3.781-3.927-.836-1.306-1.708-2.664-3.043-3.718-.061-.053-.193-.308-.265-.473-.191-.383-.431-.855-.862-1.244-1.332-1.156-1.586-2.548-.733-3.822.42-.631 1.329-1.124 2.301-1.64.307-.168.601-.324.908-.505.299.159.572.305.846.438.722.371 1.307.663 1.588 1.01a216.03 216.03 0 017.695 9.999c.329.462 1.218 1.669-.784 3.455-.723.648-1.373.92-2.079.902h-.025zm-246.822 40.277c-.63-.016-1.169-.647-1.913-1.599-.366-.475-.757-.964-1.2-1.366-.727-.661-1.322-1.52-1.955-2.418-.486-.693-.997-1.411-1.584-2.082-1.874-2.114-1.97-4.735-.25-6.39.932-.895 1.663-1.342 2.154-1.329.492.013 1.171.547 2.039 1.615.598.746 1.222 1.48 1.834 2.201 1.125 1.327 2.287 2.704 3.284 4.116.511.718.84 1.621 1.193 2.587.153.419.306.839.485 1.247.191 1.856-.818 2.32-2.753 3.025-.229.082-.446.165-.662.247-.255.094-.483.151-.672.146zm10.178-7.288c-2.029-.053-3.281-3.285-3.967-5.997-.56-2.193-.958-3.866-1.283-5.423-.37-1.735.613-2.691 2.689-3.934.153-.097.369-.141.634-.134 1.235.032 2.834 1.094 3.16 2.097 1.1 3.29 2.243 6.808 3.198 10.321.08.317-.097.816-.488 1.297-.783.999-2.151 1.732-3.197 1.704l-.126-.003-.127.022a2.22 2.22 0 01-.493.037v.013zm423.359-.31c-2.004-.052-2.43-.164-2.528-3.164-.035-1.071.018-2.14.085-3.259.014-.516.052-1.018.066-1.534.02-.768.263-.9 1.484-1.284.419-.127.864-.266 1.298-.482.41.25.847.413 1.247.562 1.086.418 1.334.576 1.392 1.27.094 1.224.429 2.366.708 3.28.069.241.139.47.197.672-.124 2.339-1.579 3.963-3.597 3.948l-.327-.008-.025-.001z"/></g><defs><clipPath id="clip0_21_49"><path fill="#fff" transform="rotate(11 -275.767 3630.042)" d="M0 0h76.838v55.438H0z"/></clipPath><clipPath id="clip1_21_49"><path fill="#fff" transform="rotate(1.5 -34.23 251.39)" d="M0 0h697v239H0z"/></clipPath></defs></svg>