<svg width="80" height="81" viewBox="0 0 80 81" fill="none" xmlns="http://www.w3.org/2000/svg">
<g clip-path="url(#clip0_354_3353)">
<g clip-path="url(#clip1_354_3353)">
<path d="M0 54.0649C0.0602813 54.2251 0.120563 54.392 0.19424 54.5856C0.241125 54.5255 0.288011 54.4921 0.294709 54.4587C0.810449 49.8459 5.42532 46.7084 9.93972 47.9033C11.7616 48.384 13.3825 49.2518 14.8426 50.4267C15.1641 50.687 15.3248 50.7004 15.5727 50.3065C16.8855 48.2104 18.6269 46.5282 20.7167 45.1997C21.0516 44.9861 21.1855 44.7658 21.1855 44.392C21.1855 43.4374 21.1587 42.4761 21.2257 41.5215C21.3262 40.193 22.6591 39.3719 23.9183 39.8392C24.6885 40.1263 25.1172 40.7204 25.1842 41.5282C25.2311 42.0555 25.2244 42.5896 25.2177 43.1236C25.2177 43.404 25.3182 43.4774 25.5995 43.4707C26.8453 43.4507 28.0911 43.4641 29.4307 43.4641C29.4307 43.1503 29.4173 42.8099 29.4307 42.4627C29.4508 42.0555 29.4307 41.6416 29.5244 41.2478C29.7455 40.2998 30.7301 39.6189 31.641 39.7324C32.6524 39.8593 33.4025 40.7137 33.4293 41.8019C33.4494 42.7031 33.4159 43.6109 33.4494 44.5121C33.4561 44.7191 33.5834 45.0195 33.7441 45.1129C36.5171 46.695 38.4528 49.0248 39.9598 51.8686C40.1273 51.6149 40.2813 51.408 40.4019 51.181C41.8084 48.6643 43.7642 46.6683 46.2023 45.1129C46.3697 45.0061 46.5104 44.7324 46.5238 44.5255C46.5707 43.6443 46.5305 42.7498 46.5774 41.8686C46.6443 40.5602 47.4682 39.7124 48.6135 39.7191C49.7053 39.7257 50.5358 40.667 50.576 41.9621C50.5894 42.4694 50.576 42.9834 50.576 43.4574H54.8292C54.8292 42.9567 54.8158 42.4227 54.8292 41.882C54.8627 40.8205 55.3918 40.0796 56.276 39.8192C57.4213 39.4854 58.6202 40.2531 58.7207 41.4547C58.8011 42.4561 58.7542 43.4707 58.8145 44.4788C58.8279 44.7124 58.9819 45.0395 59.1762 45.153C61.3731 46.388 63.0676 48.1303 64.4273 50.2131C64.5211 50.3599 64.6283 50.4934 64.7555 50.6737C65.0636 50.4467 65.3315 50.2464 65.6062 50.0529C67.3945 48.7711 69.3034 47.7565 71.5606 47.6163C74.8895 47.4093 77.2204 49.0382 78.848 51.7618C81.1453 55.5936 79.6785 59.5856 77.1333 61.9621C75.9009 63.1103 74.4943 63.9981 72.8265 64.6256C72.9806 64.7992 73.0944 64.9394 73.2284 65.0662C74.7019 66.4881 75.8205 68.1103 76.2425 70.1597C77.0663 74.1517 74.6149 77.8165 70.5894 78.4974C68.781 78.8045 67.1266 78.2571 65.5995 77.3159C64.0589 76.3679 62.86 75.0595 61.7482 73.6643C61.6142 73.4974 61.4869 73.3306 61.3195 73.1169C60.998 73.4574 60.7167 73.7912 60.4019 74.0916C58.3724 76.0342 56.3362 77.9701 54.2934 79.8926C53.9652 80.1997 53.5432 80.42 53.1614 80.6804H52.3041C51.8955 80.4267 51.4467 80.2264 51.0851 79.9127C49.6249 78.6376 48.1045 77.4093 46.7783 76.0141C45.4186 74.5789 43.858 73.6977 41.9089 73.3773C38.4997 72.8232 35.5258 73.4974 33.0743 76.0876C31.4668 77.7898 29.7723 79.4254 27.7629 80.6804H26.9056C26.4702 80.4 25.9946 80.173 25.6129 79.8392C24.0388 78.4307 22.4715 77.0021 20.9377 75.5468C20.1541 74.8059 19.4441 73.9914 18.6604 73.1637C18.5265 73.3306 18.4193 73.4574 18.3121 73.5909C16.8855 75.3866 15.3115 77.0221 13.1547 77.9634C9.357 79.6256 5.05023 77.6764 3.91159 73.7378C3.14802 71.1009 3.80442 68.691 5.41862 66.5282C5.89417 65.894 6.48359 65.3466 7.0797 64.699C6.86537 64.5856 6.66443 64.4654 6.4501 64.3653C4.8426 63.631 3.39585 62.6563 2.23711 61.3279C1.12525 60.0529 0.187542 58.6777 0.408573 56.8486C0.415271 56.7818 0.395177 56.7084 0.375084 56.5415C0.227729 56.9821 0.113865 57.3292 0 57.683C0 56.4747 0 55.2731 0 54.0649ZM16.6242 59.1717C23.791 56.5816 30.8372 56.5816 37.8969 59.1316C37.9169 58.918 37.9437 58.8179 37.9303 58.7177C37.4146 54.9327 35.9344 51.7084 32.7997 49.2651C30.1474 47.2024 25.499 46.7818 22.4447 48.7912C19.5177 50.7204 17.85 53.4707 17.0395 56.7952C16.8587 57.5228 16.7783 58.2772 16.6242 59.1717ZM42.0161 59.1583C49.1561 56.5949 56.2157 56.5615 63.2284 59.1116C63.2954 58.9647 63.3222 58.9314 63.3155 58.898C62.8667 54.9861 61.3932 51.6149 58.0777 49.2518C55.0971 47.129 51.8955 46.7685 48.6001 48.384C46.0884 49.6123 44.4541 51.7351 43.2887 54.2184C42.572 55.7404 42.2237 57.3492 42.0161 59.1583ZM17.1132 63.1904C17.6356 64.7057 18.3858 66.0075 19.2163 67.2625C19.4106 67.5562 19.6249 67.4561 19.8593 67.3359C21.4802 66.5215 23.2016 66.0075 24.9967 65.7671C28.3992 65.3065 31.6477 65.8005 34.7153 67.3426C35.0837 67.5295 35.2981 67.4627 35.4923 67.1223C35.8205 66.5549 36.2023 66.0141 36.5037 65.4334C36.8788 64.7191 37.1936 63.9714 37.5553 63.1904C30.6832 60.6203 23.9317 60.5001 17.1065 63.1904H17.1132ZM42.4849 63.1904C42.5653 63.4107 42.5988 63.5842 42.6792 63.7311C43.2686 64.8392 43.8714 65.9407 44.4474 67.0555C44.6551 67.4494 44.8627 67.5028 45.2847 67.3092C50.2545 65.0128 55.2311 64.9861 60.1808 67.3826C60.509 67.5428 60.6765 67.4694 60.8238 67.1957C61.353 66.2545 61.9156 65.3266 62.3979 64.3653C62.9672 63.2237 62.9471 63.1904 61.7348 62.7765C57.4816 61.3079 53.1279 60.8406 48.6671 61.5148C46.564 61.8352 44.5278 62.3826 42.4782 63.1904H42.4849ZM67.073 56.8753C67.1266 58.0836 67.3476 59.432 68.2518 60.5802C68.714 61.1677 69.3101 61.4414 70.0402 61.2344C70.8238 61.0141 71.6343 60.8072 72.351 60.4467C73.6705 59.7925 74.8359 58.918 75.5325 57.5562C76.7783 55.0996 75.1306 52.0221 72.3912 51.6884C69.4173 51.3279 67.0127 53.5842 67.073 56.8686V56.8753ZM12.9069 56.5615C12.8667 56.2611 12.8399 55.7938 12.7395 55.3533C12.1835 52.9367 9.357 51.1677 7.05961 51.7752C4.13262 52.5495 3.01407 56.1944 5.06363 58.5241C6.28935 59.9193 7.83657 60.9073 9.73878 61.2077C10.8975 61.3946 11.4534 61.141 12.0362 60.133C12.6457 59.0782 12.8399 57.9167 12.9002 56.5615H12.9069ZM12.7261 66.1209C12.3979 66.201 12.0496 66.2278 11.7549 66.3679C10.2813 67.0756 9.0221 68.0435 8.15807 69.4387C7.57535 70.3733 7.37441 71.4213 7.65573 72.5028C8.14468 74.3786 10.2143 75.0929 12.0563 73.9647C12.9873 73.3906 13.8647 72.6897 14.6618 71.942C15.5124 71.141 16.142 69.9661 15.2244 68.384C14.99 67.9834 14.7756 67.5762 14.5546 67.1757C14.1594 66.4748 13.5432 66.1543 12.7328 66.1209H12.7261ZM69.5245 74.5055C70.7167 74.5255 71.7013 73.8913 72.15 72.8499C72.6591 71.6683 72.3912 70.5535 71.7749 69.5055C70.9377 68.0836 69.6584 67.1356 68.2251 66.3746C67.6222 66.0609 66.9792 66.0809 66.363 66.3279C65.365 66.7217 64.1058 69.2651 64.3737 70.2999C64.3737 70.3199 64.3871 70.3332 64.3871 70.3533C64.6015 71.8886 67.8567 74.4187 69.1025 74.4721C69.2632 74.4788 69.424 74.4921 69.5311 74.4988L69.5245 74.5055ZM47.0194 70.3533C47.1869 70.5735 47.294 70.7538 47.4347 70.9007C48.6001 72.0689 49.7924 73.2171 50.9377 74.4053C52.0027 75.5135 53.704 75.2798 54.6149 74.3252C55.72 73.1637 56.8319 72.0221 57.937 70.8673C58.0643 70.7338 58.1648 70.5802 58.3456 70.3399C54.5144 68.9514 50.8104 68.7311 47.0194 70.3666V70.3533ZM21.574 70.5201C23.0208 71.9287 24.3804 73.3306 25.8339 74.6323C26.6845 75.3933 27.9437 75.3533 28.8747 74.5121C30.2411 73.2705 31.4936 71.902 32.7863 70.5869C32.8332 70.5402 32.8466 70.4601 32.8734 70.4C30 68.8246 24.146 68.8112 21.5673 70.5201H21.574Z" fill="#DABAF4"/>
<path d="M39.9062 0.660156C48.3523 0.867099 55.5995 3.59073 61.507 9.52531C63.1949 11.2209 62.8265 13.7242 60.7368 14.7122C59.6249 15.2396 58.5465 15.0727 57.5285 14.4385C57.2605 14.2716 57.0261 14.038 56.7984 13.8177C54.2197 11.321 51.2592 9.42518 47.8366 8.28365C44.7555 7.25562 41.5807 6.94187 38.3389 7.12211C33.2418 7.3958 28.781 9.23826 24.8292 12.3825C24.1326 12.9365 23.5097 13.5707 22.8399 14.1582C21.4601 15.3598 19.6115 15.3064 18.4193 14.0447C17.1936 12.7429 17.2204 10.807 18.5064 9.55201C23.2619 4.88579 28.9618 2.06203 35.5593 1.02731C36.2425 0.920503 36.939 0.867099 37.6356 0.807019C38.4327 0.746939 39.2364 0.706885 39.8995 0.666832L39.9062 0.660156Z" fill="#DABAF4"/>
<path d="M40.2076 13.8779C44.789 14.0715 48.9953 15.5735 52.3912 19.0114C53.2217 19.8526 53.5432 20.8405 53.1748 21.9821C52.8131 23.0969 52.0027 23.7377 50.8439 23.918C50.0201 24.0448 49.3101 23.7578 48.6604 23.2504C47.917 22.6697 47.1601 22.1156 46.3965 21.5548C42.8064 18.9313 36.3028 18.7311 32.0429 22.6964C31.7683 22.95 31.4869 23.197 31.1855 23.4173C30.1005 24.1917 28.6671 24.0915 27.6959 23.1903C26.6912 22.2624 26.4769 20.7738 27.2137 19.659C27.4481 19.3052 27.7361 18.9847 28.0509 18.6977C31.4133 15.5602 35.432 14.0248 40.2009 13.8846L40.2076 13.8779Z" fill="#DABAF4"/>
<path d="M39.9732 26.508C42.3644 26.528 44.2867 28.4973 44.2599 30.9072C44.2331 33.1301 42.1902 35.1328 39.9732 35.1128C37.6959 35.0927 35.7066 33.03 35.7468 30.7336C35.787 28.4172 37.7227 26.4879 39.9732 26.508Z" fill="#DABAF4"/>
</g>
</g>
<defs>
<clipPath id="clip0_354_3353">
<rect width="80" height="80" fill="white" transform="translate(0 0.660156)"/>
</clipPath>
<clipPath id="clip1_354_3353">
<rect width="80" height="80" fill="white" transform="translate(0 0.660156)"/>
</clipPath>
</defs>
</svg>
