<?xml version="1.0" encoding="utf-8"?>
<!-- Generator: Adobe Illustrator 27.3.1, SVG Export Plug-In . SVG Version: 6.00 Build 0)  -->
<svg version="1.1" id="レイヤー_1" xmlns="http://www.w3.org/2000/svg" xmlns:xlink="http://www.w3.org/1999/xlink" x="0px"
	 y="0px" viewBox="0 0 337.06 119.84" style="enable-background:new 0 0 337.06 119.84;" xml:space="preserve">
<style type="text/css">
	.st0{fill:#37293E;}
	.st1{fill:#DAC8DE;}
	.st2{fill:#DABAF4;}
</style>
<g>
	<path class="st0" d="M272.61,23.07c0.9,0.56,1.69,1.23,2.36,2.04c1.86,2.24,2.73,4.79,2.53,7.7c-0.32,4.74-4.07,8.83-8.78,9.53
		c-1.02,0.15-2.06,0.16-3.09,0.17c-2.31,0.02-4.63,0.01-6.94,0.01c-0.6,0-1.19-0.04-1.73-0.35c-0.96-0.56-1.42-1.4-1.43-2.49
		c-0.01-2.44-0.01-4.88-0.01-7.31c0-7.03,0-14.07,0.01-21.1c0-0.44,0.04-0.9,0.16-1.32c0.33-1.09,1.4-1.81,2.57-1.81
		c2.29,0,4.58-0.05,6.87,0.01c3.91,0.11,6.8,1.89,8.44,5.46c1.46,3.18,1.1,6.26-0.81,9.18c-0.04,0.07-0.09,0.13-0.13,0.19
		C272.64,22.99,272.64,23.01,272.61,23.07z M260.99,26.88c0,3.41,0,6.78,0,10.17c0.14,0,0.27,0,0.39,0c1.72,0,3.44,0,5.15,0
		c0.35,0,0.7-0.02,1.04-0.06c3.12-0.42,5.38-3.13,4.26-6.78c-0.51-1.64-2.34-3.22-4.54-3.29c-1.58-0.05-3.16-0.03-4.75-0.03
		C262.03,26.87,261.53,26.88,260.99,26.88z M260.99,13.62c-0.01,0.08-0.02,0.12-0.02,0.17c0,2.45,0,4.9,0,7.34
		c0,0.23,0.1,0.28,0.31,0.28c1.34,0,2.67,0.03,4.01-0.01c1.31-0.04,2.36-0.67,3.09-1.72c0.85-1.23,0.94-2.6,0.28-3.95
		c-0.66-1.33-1.77-2.09-3.29-2.13c-1.37-0.03-2.74-0.02-4.11-0.02C261.17,13.58,261.1,13.6,260.99,13.62z"/>
	<path class="st0" d="M176.5,33.09c0.19-0.57,0.38-1.14,0.56-1.71c1.22-3.73,2.43-7.45,3.66-11.18c0.48-1.45,1.91-2.2,3.31-1.75
		c0.75,0.24,1.27,0.75,1.54,1.49c0.37,1.05,0.72,2.12,1.07,3.18c1.03,3.11,2.06,6.21,3.09,9.32c0.07,0.21,0.16,0.42,0.24,0.63
		c0.03,0,0.06-0.01,0.09-0.01c0.21-0.58,0.42-1.16,0.64-1.75c1.37-3.72,2.74-7.44,4.1-11.17c0.35-0.96,0.96-1.62,2-1.84
		c1.67-0.36,3.54,1.56,2.76,3.53c-0.62,1.58-1.21,3.17-1.81,4.76c-1.76,4.67-3.52,9.35-5.26,14.03c-0.48,1.3-1.8,2.15-3.1,1.77
		c-0.86-0.25-1.46-0.82-1.74-1.68c-0.7-2.07-1.38-4.15-2.07-6.23c-0.74-2.24-1.48-4.47-2.22-6.71c-0.04-0.11-0.09-0.22-0.2-0.32
		c-0.25,0.76-0.5,1.51-0.75,2.27c-1.15,3.57-2.31,7.14-3.46,10.71c-0.26,0.8-0.72,1.45-1.49,1.82c-1.07,0.5-2.24,0.19-3-0.79
		c-0.23-0.3-0.42-0.64-0.55-0.99c-2.32-6.18-4.62-12.37-6.93-18.55c-0.65-1.73,0.24-3.35,2-3.64c0.99-0.16,2.02,0.4,2.47,1.43
		c0.43,1,0.79,2.04,1.17,3.07c1.22,3.3,2.43,6.6,3.65,9.9c0.05,0.13,0.1,0.27,0.16,0.4C176.44,33.09,176.47,33.09,176.5,33.09z"/>
	<path class="st0" d="M326.95,31.96c-2.47,0-4.94,0-7.41,0c-0.64,0-0.63,0-0.46,0.6c0.63,2.25,2.18,3.62,4.3,4.41
		c2.21,0.82,4.36,0.63,6.45-0.42c0.27-0.13,0.52-0.31,0.76-0.5c0.75-0.59,1.59-0.75,2.51-0.54c0.9,0.2,1.32,0.87,1.55,1.68
		c0.23,0.81,0.02,1.53-0.61,2.06c-0.67,0.56-1.36,1.1-2.11,1.55c-1.99,1.21-4.2,1.71-6.5,1.66c-4.54-0.09-8.02-2.08-10.33-6.01
		c-1.24-2.11-1.86-4.41-1.69-6.84c0.31-4.42,2.33-7.91,6.17-10.19c2.28-1.35,4.83-1.76,7.47-1.37c2.08,0.31,4,1.03,5.62,2.39
		c2.43,2.03,3.86,4.64,4.29,7.77c0.08,0.58,0.13,1.18,0.06,1.76c-0.14,1.1-0.98,1.84-2.09,1.93c-0.54,0.04-1.08,0.03-1.62,0.03
		c-1.07,0-2.13-0.01-3.2-0.01C329.06,31.96,328,31.96,326.95,31.96C326.95,31.96,326.95,31.96,326.95,31.96z M332.48,27.81
		c0.03-0.04,0.07-0.07,0.1-0.11c-0.24-0.46-0.44-0.94-0.71-1.38c-0.77-1.22-1.87-2.08-3.12-2.74c-1.45-0.77-3.01-1.19-4.67-0.83
		c-2.66,0.57-4.47,2.11-5.32,4.72c-0.1,0.29-0.01,0.37,0.26,0.36c0.06,0,0.11,0,0.17,0c4.28-0.01,8.55-0.01,12.83-0.02
		C332.17,27.81,332.33,27.81,332.48,27.81z"/>
	<path class="st0" d="M289.9,31.99c0.13,0.8,0.42,1.48,0.8,2.13c0.78,1.34,1.96,2.21,3.39,2.78c1.26,0.49,2.55,0.66,3.89,0.5
		c1.37-0.16,2.59-0.62,3.7-1.46c1.57-1.19,3.71-0.31,3.97,1.61c0.1,0.7-0.18,1.27-0.69,1.73c-1.7,1.55-3.68,2.54-5.94,2.96
		c-2.49,0.46-4.92,0.35-7.26-0.68c-3.89-1.72-6.22-4.73-7.16-8.82c-1.19-5.17,1.4-11.15,6.72-13.7c1.94-0.93,4.03-1.26,6.2-1.01
		c1.71,0.19,3.34,0.64,4.79,1.55c2.92,1.82,4.74,4.44,5.45,7.81c0.18,0.85,0.36,1.71,0.22,2.59c-0.18,1.13-1,1.89-2.15,1.96
		c-0.73,0.04-1.46,0.02-2.19,0.02c-4.4,0-8.81,0-13.21,0C290.28,31.96,290.11,31.98,289.9,31.99z M303.48,27.79
		c-0.04-0.17-0.05-0.32-0.12-0.44c-0.26-0.48-0.48-0.99-0.8-1.42c-0.86-1.18-2.03-1.98-3.33-2.59c-0.93-0.44-1.92-0.72-2.95-0.71
		c-1.99,0.02-3.69,0.75-5.05,2.21c-0.78,0.83-1.3,1.8-1.57,2.95C294.26,27.79,298.84,27.79,303.48,27.79z"/>
	<path class="st0" d="M147.59,13.59c-0.2,0-0.34,0-0.49,0c-2.19,0-4.38,0-6.57-0.01c-0.64,0-1.28-0.01-1.87-0.33
		c-1.11-0.6-1.69-1.89-1.39-3.07c0.32-1.26,1.35-2.06,2.69-2.06c5.28,0,10.56,0,15.84,0c1.63,0,3.26,0.03,4.89-0.01
		c1.45-0.04,2.67,1.12,2.75,2.53c0.08,1.49-1.07,2.79-2.54,2.91c-0.32,0.03-0.65,0.03-0.98,0.03c-2.17,0-4.34,0.02-6.5-0.01
		c-0.39,0-0.44,0.13-0.44,0.45c0,3.62-0.01,7.25-0.01,10.87c0,4.82,0,9.64-0.01,14.46c0,0.44-0.03,0.91-0.16,1.32
		c-0.39,1.22-1.59,1.94-2.87,1.78c-1.24-0.16-2.3-1.26-2.32-2.54c-0.04-1.83-0.02-3.67-0.03-5.5c0-6.69,0-13.38,0-20.06
		C147.59,14.12,147.59,13.88,147.59,13.59z"/>
	<path class="st0" d="M229.82,19.44c0.49-0.24,0.96-0.49,1.44-0.7c3.7-1.62,8.44-0.63,11.12,2.31c1.93,2.12,2.91,4.6,2.9,7.47
		c-0.02,3.67-0.01,7.34-0.01,11.01c0,0.65-0.09,1.27-0.47,1.82c-0.61,0.88-1.67,1.31-2.64,1.06c-1.1-0.29-1.91-1.2-2-2.27
		c-0.03-0.4-0.06-0.8-0.06-1.21c0-3.58-0.03-7.16,0.03-10.74c0.05-2.69-2.32-4.72-4.43-4.94c-2.17-0.22-3.82,0.55-4.93,2.42
		c-0.45,0.75-0.64,1.59-0.64,2.47c0,3.7,0.01,7.4,0.02,11.11c0,0.93-0.19,1.79-0.88,2.45c-0.79,0.75-1.73,0.99-2.76,0.59
		c-1.05-0.41-1.56-1.23-1.64-2.33c-0.03-0.43-0.02-0.87-0.02-1.31c0-5.89,0.01-11.79,0.01-17.68c0-0.59,0.03-1.16,0.33-1.69
		c1-1.75,3.45-1.78,4.5-0.05C229.74,19.29,229.77,19.35,229.82,19.44z"/>
	<path class="st0" d="M209.19,30.21c0-2.92,0-5.84,0-8.76c0-0.48,0.01-0.97,0.11-1.43c0.26-1.24,1.46-2.13,2.66-2.02
		c1.41,0.13,2.41,1.07,2.46,2.42c0.05,1.67,0.03,3.33,0.03,5c0,4.75,0,9.51,0,14.26c0,1.42-0.77,2.44-2.06,2.73
		c-1.52,0.35-3.04-0.76-3.17-2.31c-0.04-0.5-0.05-1.01-0.05-1.51c0-2.8,0-5.59,0-8.39C209.18,30.21,209.18,30.21,209.19,30.21z"/>
	<path class="st0" d="M214.5,10.87c-0.02,1.52-1.25,2.7-2.78,2.67c-1.42-0.03-2.62-1.27-2.61-2.72c0.01-1.5,1.29-2.74,2.8-2.71
		C213.35,8.14,214.52,9.39,214.5,10.87z"/>
</g>
<g>
	<path class="st1" d="M0,80c0.09,0.24,0.18,0.49,0.29,0.78c0.07-0.09,0.14-0.14,0.15-0.19c0.77-6.91,7.66-11.61,14.4-9.82
		c2.72,0.72,5.14,2.02,7.32,3.78c0.48,0.39,0.72,0.41,1.09-0.18c1.96-3.14,4.56-5.66,7.68-7.65c0.5-0.32,0.7-0.65,0.7-1.21
		c0-1.43-0.04-2.87,0.06-4.3c0.15-1.99,2.14-3.22,4.02-2.52c1.15,0.43,1.79,1.32,1.89,2.53c0.07,0.79,0.06,1.59,0.05,2.39
		c0,0.42,0.15,0.53,0.57,0.52c1.86-0.03,3.72-0.01,5.72-0.01c0-0.47-0.02-0.98,0-1.5c0.03-0.61,0.01-1.23,0.14-1.82
		c0.33-1.42,1.8-2.44,3.16-2.27c1.51,0.19,2.63,1.47,2.67,3.1c0.03,1.35-0.02,2.71,0.03,4.06c0.01,0.31,0.2,0.76,0.44,0.9
		c4.14,2.37,7.03,5.86,9.28,10.12c0.25-0.38,0.48-0.69,0.66-1.03c2.1-3.77,5.02-6.76,8.66-9.09c0.25-0.16,0.46-0.57,0.48-0.88
		c0.07-1.32,0.01-2.66,0.08-3.98c0.1-1.96,1.33-3.23,3.04-3.22c1.63,0.01,2.87,1.42,2.93,3.36c0.02,0.76,0,1.53,0,2.24
		c2.11,0,4.15,0,6.35,0c0-0.75-0.02-1.55,0-2.36c0.05-1.59,0.84-2.7,2.16-3.09c1.71-0.5,3.5,0.65,3.65,2.45
		c0.12,1.5,0.05,3.02,0.14,4.53c0.02,0.35,0.25,0.84,0.54,1.01c3.28,1.85,5.81,4.46,7.84,7.58c0.14,0.22,0.3,0.42,0.49,0.69
		c0.46-0.34,0.86-0.64,1.27-0.93c2.67-1.92,5.52-3.44,8.89-3.65c4.97-0.31,8.45,2.13,10.88,6.21c3.43,5.74,1.24,11.72-2.56,15.28
		c-1.84,1.72-3.94,3.05-6.43,3.99c0.23,0.26,0.4,0.47,0.6,0.66c2.2,2.13,3.87,4.56,4.5,7.63c1.23,5.98-2.43,11.47-8.44,12.49
		c-2.7,0.46-5.17-0.36-7.45-1.77c-2.3-1.42-4.09-3.38-5.75-5.47c-0.2-0.25-0.39-0.5-0.64-0.82c-0.48,0.51-0.9,1.01-1.37,1.46
		c-3.03,2.91-6.07,5.81-9.12,8.69c-0.49,0.46-1.12,0.79-1.69,1.18c-0.43,0-0.85,0-1.28,0c-0.61-0.38-1.28-0.68-1.82-1.15
		c-2.18-1.91-4.45-3.75-6.43-5.84c-2.03-2.15-4.36-3.47-7.27-3.95c-5.09-0.83-9.53,0.18-13.19,4.06c-2.4,2.55-4.93,5-7.93,6.88
		c-0.43,0-0.85,0-1.28,0c-0.65-0.42-1.36-0.76-1.93-1.26c-2.35-2.11-4.69-4.25-6.98-6.43c-1.17-1.11-2.23-2.33-3.4-3.57
		c-0.2,0.25-0.36,0.44-0.52,0.64c-2.13,2.69-4.48,5.14-7.7,6.55c-5.67,2.49-12.1-0.43-13.8-6.33c-1.14-3.95-0.16-7.56,2.25-10.8
		c0.71-0.95,1.59-1.77,2.48-2.74c-0.32-0.17-0.62-0.35-0.94-0.5c-2.4-1.1-4.56-2.56-6.29-4.55c-1.66-1.91-3.06-3.97-2.73-6.71
		c0.01-0.1-0.02-0.21-0.05-0.46C0.34,84.37,0.17,84.89,0,85.42C0,83.61,0,81.81,0,80z M24.82,87.65c10.7-3.88,21.22-3.88,31.76-0.06
		c0.03-0.32,0.07-0.47,0.05-0.62c-0.77-5.67-2.98-10.5-7.66-14.16c-3.96-3.09-10.9-3.72-15.46-0.71c-4.37,2.89-6.86,7.01-8.07,11.99
		C25.18,85.19,25.05,86.32,24.82,87.65z M62.74,87.63c10.66-3.84,21.2-3.89,31.67-0.07c0.1-0.22,0.14-0.27,0.13-0.32
		c-0.67-5.86-2.87-10.91-7.82-14.45c-4.45-3.18-9.23-3.72-14.15-1.3c-3.75,1.84-6.19,5.02-7.93,8.74
		C63.57,82.51,63.05,84.92,62.74,87.63z M25.55,93.67c0.78,2.27,1.9,4.22,3.14,6.1c0.29,0.44,0.61,0.29,0.96,0.11
		c2.42-1.22,4.99-1.99,7.67-2.35c5.08-0.69,9.93,0.05,14.51,2.36c0.55,0.28,0.87,0.18,1.16-0.33c0.49-0.85,1.06-1.66,1.51-2.53
		c0.56-1.07,1.03-2.19,1.57-3.36C45.83,89.82,35.75,89.65,25.55,93.67z M63.44,93.67c0.12,0.33,0.17,0.59,0.29,0.81
		c0.88,1.66,1.78,3.31,2.64,4.98c0.31,0.59,0.62,0.67,1.25,0.38c7.42-3.44,14.85-3.48,22.24,0.11c0.49,0.24,0.74,0.13,0.96-0.28
		c0.79-1.41,1.63-2.8,2.35-4.24c0.85-1.71,0.82-1.76-0.99-2.38c-6.35-2.2-12.85-2.9-19.51-1.89C69.54,91.63,66.5,92.46,63.44,93.67z
		 M100.14,84.21c0.08,1.81,0.41,3.83,1.76,5.55c0.69,0.88,1.58,1.29,2.67,0.98c1.17-0.33,2.38-0.64,3.45-1.18
		c1.97-0.99,3.71-2.29,4.75-4.33c1.86-3.68-0.6-8.29-4.69-8.79C103.64,75.91,100.06,79.29,100.14,84.21z M19.27,83.75
		c-0.06-0.45-0.1-1.15-0.25-1.81c-0.83-3.62-5.05-6.27-8.48-5.36c-4.37,1.16-6.04,6.62-2.98,10.11c1.83,2.09,4.14,3.57,6.98,4.02
		c1.73,0.28,2.56-0.1,3.43-1.61C18.89,87.52,19.19,85.78,19.27,83.75z M19,98.07c-0.49,0.12-1.01,0.16-1.45,0.37
		c-2.2,1.06-4.08,2.51-5.37,4.6c-0.87,1.4-1.17,2.97-0.75,4.59c0.73,2.81,3.82,3.88,6.57,2.19c1.39-0.86,2.7-1.91,3.89-3.03
		c1.27-1.2,2.21-2.96,0.84-5.33c-0.35-0.6-0.67-1.21-1-1.81C21.14,98.61,20.22,98.13,19,98.07z M103.81,110.63
		c1.78,0.03,3.25-0.92,3.92-2.48c0.76-1.77,0.36-3.44-0.56-5.01c-1.25-2.13-3.16-3.55-5.3-4.69c-0.9-0.47-1.86-0.44-2.78-0.07
		c-1.49,0.59-3.37,4.4-2.97,5.95c0.01,0.03,0.02,0.05,0.02,0.08c0.32,2.3,5.18,6.09,7.04,6.17
		C103.41,110.6,103.65,110.62,103.81,110.63z M70.21,104.41c0.25,0.33,0.41,0.6,0.62,0.82c1.74,1.75,3.52,3.47,5.23,5.25
		c1.59,1.66,4.13,1.31,5.49-0.12c1.65-1.74,3.31-3.45,4.96-5.18c0.19-0.2,0.34-0.43,0.61-0.79C81.4,102.3,75.87,101.96,70.21,104.41
		z M32.22,104.66c2.16,2.11,4.19,4.21,6.36,6.16c1.27,1.14,3.15,1.08,4.54-0.18c2.04-1.86,3.91-3.91,5.84-5.88
		c0.07-0.07,0.09-0.19,0.13-0.28C44.8,102.13,36.06,102.11,32.22,104.66z"/>
	<path class="st1" d="M59.58,0c12.61,0.31,23.43,4.39,32.25,13.28c2.52,2.54,1.97,6.29-1.15,7.77c-1.66,0.79-3.27,0.54-4.79-0.41
		c-0.4-0.25-0.75-0.6-1.09-0.93c-3.85-3.74-8.27-6.58-13.38-8.29c-4.6-1.54-9.34-2.01-14.18-1.74c-7.61,0.41-14.27,3.17-20.17,7.88
		c-1.04,0.83-1.97,1.78-2.97,2.66c-2.06,1.8-4.82,1.72-6.6-0.17c-1.83-1.95-1.79-4.85,0.13-6.73c7.1-6.99,15.61-11.22,25.46-12.77
		c1.02-0.16,2.06-0.24,3.1-0.33C57.39,0.11,58.58,0.06,59.58,0z"/>
	<path class="st1" d="M60.03,19.8c6.84,0.29,13.12,2.54,18.19,7.69c1.24,1.26,1.72,2.74,1.17,4.45c-0.54,1.67-1.75,2.63-3.48,2.9
		c-1.23,0.19-2.29-0.24-3.26-1c-1.11-0.87-2.24-1.7-3.38-2.54c-5.36-3.93-15.07-4.23-21.43,1.71c-0.41,0.38-0.83,0.75-1.28,1.08
		c-1.62,1.16-3.76,1.01-5.21-0.34c-1.5-1.39-1.82-3.62-0.72-5.29c0.35-0.53,0.78-1.01,1.25-1.44C46.9,22.31,52.9,20.01,60.03,19.8z"
		/>
	<path class="st1" d="M59.68,38.72c3.57,0.03,6.44,2.98,6.4,6.59c-0.04,3.33-3.09,6.33-6.4,6.3c-3.4-0.03-6.37-3.12-6.31-6.56
		C53.43,41.59,56.31,38.7,59.68,38.72z"/>
</g>
<path class="st0" d="M144.82,63.06v17.37c0,0.44-0.24,0.68-0.68,0.68h-1.46c-0.44,0-0.68-0.24-0.68-0.68V63.06
	c0-0.44,0.24-0.68,0.68-0.68h1.46C144.58,62.38,144.82,62.62,144.82,63.06z"/>
<path class="st0" d="M162.55,63.06v0.05c0,0.44-0.24,0.68-0.68,0.68h-4.84v16.63c0,0.44-0.24,0.68-0.68,0.68h-1.31
	c-0.44,0-0.68-0.24-0.68-0.68V63.79h-4.84c-0.44,0-0.68-0.24-0.68-0.68v-0.05c0-0.44,0.24-0.68,0.68-0.68h12.34
	C162.31,62.38,162.55,62.62,162.55,63.06z"/>
<path class="st0" d="M189.25,62.75c0,0.37-0.24,0.58-0.71,0.58h-9.62v1.86h7.48c0.47,0,0.71,0.24,0.71,0.71v6.93
	c0,0.47-0.24,0.71-0.71,0.71h-1.88v1.75h4.03c0.47,0,0.71,0.24,0.71,0.71c0,0.39-0.24,0.6-0.71,0.6h-4.03v3.71
	c0,2.56-0.37,2.85-3.69,2.85c-0.55,0-1.88-0.05-4-0.1c-0.47-0.03-0.73-0.26-0.73-0.71c-0.03-0.44,0.24-0.68,0.73-0.65
	c1.99,0.05,3.24,0.11,3.71,0.11c1.44,0,1.28-0.05,1.28-1.54v-3.66h-15.2c-0.47,0-0.71-0.24-0.71-0.71c0-0.39,0.24-0.6,0.71-0.6h15.2
	v-1.75h-13.05c-0.47,0-0.71-0.24-0.71-0.71v-6.93c0-0.47,0.24-0.71,0.71-0.71h7.48v-1.86h-9.62c-0.47,0-0.71-0.24-0.71-0.71
	c0-0.37,0.24-0.58,0.71-0.58h9.62v-1.36c0-0.47,0.24-0.71,0.71-0.71h1.25c0.47,0,0.71,0.24,0.71,0.71v1.36h9.62
	C189.02,62.04,189.25,62.28,189.25,62.75z M171.23,77.39c1.73,0.92,3.19,1.88,4.42,2.75c0.37,0.26,0.42,0.6,0.16,0.97l-0.26,0.39
	c-0.26,0.42-0.6,0.47-0.97,0.18c-1.44-1.07-2.82-1.99-4.24-2.8c-0.39-0.24-0.5-0.55-0.24-0.97l0.16-0.26
	C170.5,77.29,170.84,77.18,171.23,77.39z M176.25,66.3h-5.62v2.43h5.62V66.3z M176.25,69.78h-5.62v2.59h5.62V69.78z M184.55,66.3
	h-5.62v2.43h5.62V66.3z M184.55,69.78h-5.62v2.59h5.62V69.78z"/>
<path class="st0" d="M202.93,71.64h-7.01v10.78c0,0.47-0.24,0.71-0.71,0.71h-1.23c-0.47,0-0.71-0.24-0.71-0.71V61.7
	c0-0.47,0.24-0.71,0.71-0.71h8.95c0.47,0,0.71,0.24,0.71,0.71v9.23C203.64,71.4,203.41,71.64,202.93,71.64z M201.08,62.33h-5.15
	v3.37h5.15V62.33z M201.08,66.85h-5.15v3.5h5.15V66.85z M211.75,82.94c-0.37,0-1.57-0.05-3.61-0.1c-0.47-0.03-0.71-0.26-0.73-0.71
	c-0.03-0.47,0.24-0.73,0.73-0.71c1.88,0.05,2.98,0.1,3.29,0.1c1.15,0,1.18-0.03,1.18-1.73v-8.16h-7.25c-0.47,0-0.71-0.24-0.71-0.71
	V61.7c0-0.47,0.24-0.71,0.71-0.71h9.18c0.47,0,0.71,0.24,0.71,0.71v18.1C215.25,82.52,214.89,82.94,211.75,82.94z M212.61,62.33
	h-5.39v3.37h5.39V62.33z M212.61,66.85h-5.39v3.5h5.39V66.85z"/>
<path class="st0" d="M159.51,92.49c-2.2,8.29-6.85,14.12-14.72,18.05c-0.47,0.24-0.84,0.1-0.99-0.29c-0.18-0.42-0.05-0.73,0.39-0.99
	c6.36-3.79,9.68-9.21,11.9-16.5h-14.25c-0.5,0-0.76-0.24-0.78-0.71c0-0.44,0.24-0.71,0.76-0.71h16.84
	C159.2,91.33,159.75,91.65,159.51,92.49z"/>
<path class="st0" d="M168.25,90.52h1.12c0.5,0,0.78,0.26,0.78,0.79v10.36c0,0.5-0.26,0.78-0.78,0.78h-1.12
	c-0.5,0-0.78-0.29-0.78-0.78V91.31C167.47,90.81,167.76,90.52,168.25,90.52z M170.45,111.32c-0.5,0.16-0.81,0.03-0.94-0.34
	c-0.13-0.39,0.05-0.68,0.52-0.89c5.94-2.43,8.24-6.62,8.24-13.18v-6.3c0-0.52,0.29-0.78,0.79-0.78h1.31c0.52,0,0.78,0.26,0.78,0.78
	v6.3C181.15,103.94,177.77,108.91,170.45,111.32z"/>
<path class="st0" d="M208.87,101.27h-19.93c-0.47,0-0.71-0.24-0.71-0.71v-0.31c0-0.47,0.24-0.71,0.71-0.71h19.93
	c0.47,0,0.71,0.24,0.71,0.71v0.31C209.58,101.04,209.34,101.27,208.87,101.27z"/>
<path class="st0" d="M233.04,96.98c-2.88,7.38-6.36,11.19-13,14.23c-0.44,0.21-0.81,0.1-1.02-0.29c-0.24-0.42-0.1-0.76,0.34-1.02
	c5.78-3.5,7.79-6.83,9.99-12.76h-13.89c-0.52,0-0.81-0.24-0.79-0.71c0.03-0.45,0.29-0.68,0.79-0.68h16.76
	C232.75,95.75,233.43,95.96,233.04,96.98z M216.85,90.86c0-0.44,0.29-0.71,0.78-0.71h12.14c0.52,0,0.78,0.26,0.78,0.71
	c0,0.47-0.26,0.73-0.78,0.73h-12.14C217.11,91.6,216.85,91.33,216.85,90.86z"/>
<path class="st0" d="M245.36,96.15c-1.88-1.52-3.77-2.93-5.96-4.21c-0.47-0.26-0.58-0.63-0.34-1.05l0.03-0.03
	c0.26-0.42,0.58-0.55,1.05-0.37c2.43,0.86,4.5,1.88,6.85,3.22c0.44,0.26,0.55,0.65,0.26,1.1l-0.81,1.18
	C246.15,96.41,245.75,96.49,245.36,96.15z M240.52,108.05c7.11-3.03,12.68-7.4,17.58-13.81c0.29-0.39,0.65-0.47,1.05-0.24
	c0.37,0.24,0.45,0.6,0.18,1.02c-4.16,6.85-9.94,12.34-17.71,15.59c-0.44,0.18-0.81,0.05-1.02-0.42l-0.5-1.1
	C239.9,108.62,240.05,108.26,240.52,108.05z"/>
<path class="st0" d="M280.78,109.43c-1.96-3.06-3.87-5.49-6.46-7.9c-2.75,3.43-6.56,6.17-10.98,8.34c-0.44,0.21-0.78,0.16-0.97-0.21
	c-0.21-0.37-0.08-0.68,0.37-0.94c6.64-3.87,10.59-8.76,13.42-15.9h-10.2c-0.94,0-0.94-1.44,0-1.44h12.45
	c1.05,0.05,1.54,0.73,1.18,1.54c-1.49,3.32-2.56,5.15-4.18,7.4c2.62,1.86,5.18,3.9,7.9,7.32c0.31,0.42,0.26,0.84-0.16,1.12
	l-1.25,0.86C281.46,109.93,281.06,109.88,280.78,109.43z"/>
<path class="st0" d="M310.18,92.59c0,0.44-0.24,0.68-0.71,0.68h-9.05v1.31c0.68,1.94,1.49,3.71,2.41,5.28
	c1.23-1.05,2.56-2.51,4-4.34c0.29-0.39,0.63-0.44,0.99-0.16l0.6,0.47c0.37,0.29,0.42,0.6,0.13,0.97c-1.31,1.67-2.9,3.27-4.73,4.71
	c1.99,2.93,4.05,5.28,6.25,7.04c0.34,0.29,0.39,0.63,0.1,0.99l-0.37,0.44c-0.29,0.34-0.63,0.39-0.99,0.1
	c-3.56-2.8-6.33-6.2-8.4-10.15v8.58c0,2.69-0.37,3.14-3.32,3.14c-0.63,0-1.75-0.05-3.45-0.13c-0.47-0.03-0.71-0.26-0.73-0.71
	c-0.03-0.47,0.24-0.71,0.73-0.68c1.54,0.08,2.56,0.1,3.09,0.1c1.02,0,1.05-0.08,1.05-1.73V93.27h-9.62c-0.47,0-0.71-0.24-0.71-0.71
	c0-0.44,0.24-0.68,0.71-0.68h9.62v-2.62c0-0.47,0.24-0.71,0.71-0.71h1.23c0.47,0,0.71,0.24,0.71,0.71v2.62h9.05
	C309.94,91.88,310.18,92.12,310.18,92.59z M296.71,103.94c-1.78,1.67-4.37,3.61-7.61,5.44c-0.42,0.24-0.73,0.11-0.97-0.29
	l-0.16-0.26c-0.24-0.39-0.13-0.71,0.26-0.94c2.69-1.57,5.13-3.4,7.25-5.44c0.34-0.34,0.68-0.31,0.99,0.08l0.31,0.42
	C297.05,103.29,297.02,103.63,296.71,103.94z M291.21,95.62c1.41,1.49,2.62,2.83,3.56,4.03c0.29,0.34,0.26,0.68-0.08,0.99
	l-0.47,0.45c-0.34,0.31-0.71,0.29-0.99-0.1c-1.02-1.31-2.17-2.67-3.43-4.03c-0.31-0.34-0.31-0.65,0.03-0.99l0.37-0.37
	C290.54,95.26,290.9,95.28,291.21,95.62z M303.8,88.14c1.31,0.68,2.48,1.39,3.53,2.12c0.39,0.26,0.44,0.6,0.18,0.97l-0.05,0.05
	c-0.26,0.37-0.6,0.42-0.99,0.18c-1.49-0.89-2.62-1.52-3.53-1.99c-0.42-0.24-0.52-0.6-0.21-0.99l0.1-0.13
	C303.09,88.01,303.43,87.93,303.8,88.14z"/>
<path class="st0" d="M335.99,109.8c0.42,0.24,0.5,0.55,0.24,0.97l-0.18,0.29c-0.24,0.37-0.58,0.47-0.97,0.26
	c-4.68-2.33-8.26-6.77-10.02-11.98c-1.78,5.18-5.41,9.65-10.17,11.98c-0.39,0.21-0.73,0.1-0.97-0.26l-0.18-0.29
	c-0.26-0.42-0.18-0.73,0.24-0.97c5.94-3.37,9.68-9.96,9.68-17.97v-2.17c0-0.47,0.24-0.71,0.71-0.71h1.25c0.47,0,0.71,0.24,0.71,0.71
	v2.17C326.32,99.83,330.06,106.42,335.99,109.8z"/>
<path class="st0" d="M272.61,23.07c0.9,0.56,1.69,1.23,2.36,2.04c1.86,2.24,2.73,4.79,2.53,7.7c-0.32,4.74-4.07,8.83-8.78,9.53
	c-1.02,0.15-2.06,0.16-3.09,0.17c-2.31,0.02-4.63,0.01-6.94,0.01c-0.6,0-1.19-0.04-1.73-0.35c-0.96-0.56-1.42-1.4-1.43-2.49
	c-0.01-2.44-0.01-4.88-0.01-7.31c0-7.03,0-14.07,0.01-21.1c0-0.44,0.04-0.9,0.16-1.32c0.33-1.09,1.4-1.81,2.57-1.81
	c2.29,0,4.58-0.05,6.87,0.01c3.91,0.11,6.8,1.89,8.44,5.46c1.46,3.18,1.1,6.26-0.81,9.18c-0.04,0.07-0.09,0.13-0.13,0.19
	C272.64,22.99,272.64,23.01,272.61,23.07z M260.99,26.88c0,3.41,0,6.78,0,10.17c0.14,0,0.27,0,0.39,0c1.72,0,3.44,0,5.15,0
	c0.35,0,0.7-0.02,1.04-0.06c3.12-0.42,5.38-3.13,4.26-6.78c-0.51-1.64-2.34-3.22-4.54-3.29c-1.58-0.05-3.16-0.03-4.75-0.03
	C262.03,26.87,261.53,26.88,260.99,26.88z M260.99,13.62c-0.01,0.08-0.02,0.12-0.02,0.17c0,2.45,0,4.9,0,7.34
	c0,0.23,0.1,0.28,0.31,0.28c1.34,0,2.67,0.03,4.01-0.01c1.31-0.04,2.36-0.67,3.09-1.72c0.85-1.23,0.94-2.6,0.28-3.95
	c-0.66-1.33-1.77-2.09-3.29-2.13c-1.37-0.03-2.74-0.02-4.11-0.02C261.17,13.58,261.1,13.6,260.99,13.62z"/>
<path class="st0" d="M176.5,33.09c0.19-0.57,0.38-1.14,0.56-1.71c1.22-3.73,2.43-7.45,3.66-11.18c0.48-1.45,1.91-2.2,3.31-1.75
	c0.75,0.24,1.27,0.75,1.54,1.49c0.37,1.05,0.72,2.12,1.07,3.18c1.03,3.11,2.06,6.21,3.09,9.32c0.07,0.21,0.16,0.42,0.24,0.63
	c0.03,0,0.06-0.01,0.09-0.01c0.21-0.58,0.42-1.16,0.64-1.75c1.37-3.72,2.74-7.44,4.1-11.17c0.35-0.96,0.96-1.62,2-1.84
	c1.67-0.36,3.54,1.56,2.76,3.53c-0.62,1.58-1.21,3.17-1.81,4.76c-1.76,4.67-3.52,9.35-5.26,14.03c-0.48,1.3-1.8,2.15-3.1,1.77
	c-0.86-0.25-1.46-0.82-1.74-1.68c-0.7-2.07-1.38-4.15-2.07-6.23c-0.74-2.24-1.48-4.47-2.22-6.71c-0.04-0.11-0.09-0.22-0.2-0.32
	c-0.25,0.76-0.5,1.51-0.75,2.27c-1.15,3.57-2.31,7.14-3.46,10.71c-0.26,0.8-0.72,1.45-1.49,1.82c-1.07,0.5-2.24,0.19-3-0.79
	c-0.23-0.3-0.42-0.64-0.55-0.99c-2.32-6.18-4.62-12.37-6.93-18.55c-0.65-1.73,0.24-3.35,2-3.64c0.99-0.16,2.02,0.4,2.47,1.43
	c0.43,1,0.79,2.04,1.17,3.07c1.22,3.3,2.43,6.6,3.65,9.9c0.05,0.13,0.1,0.27,0.16,0.4C176.44,33.09,176.47,33.09,176.5,33.09z"/>
<path class="st0" d="M326.95,31.96c-2.47,0-4.94,0-7.41,0c-0.64,0-0.63,0-0.46,0.6c0.63,2.25,2.18,3.62,4.3,4.41
	c2.21,0.82,4.36,0.63,6.45-0.42c0.27-0.13,0.52-0.31,0.76-0.5c0.75-0.59,1.59-0.75,2.51-0.54c0.9,0.2,1.32,0.87,1.55,1.68
	c0.23,0.81,0.02,1.53-0.61,2.06c-0.67,0.56-1.36,1.1-2.11,1.55c-1.99,1.21-4.2,1.71-6.5,1.66c-4.54-0.09-8.02-2.08-10.33-6.01
	c-1.24-2.11-1.86-4.41-1.69-6.84c0.31-4.42,2.33-7.91,6.17-10.19c2.28-1.35,4.83-1.76,7.47-1.37c2.08,0.31,4,1.03,5.62,2.39
	c2.43,2.03,3.86,4.64,4.29,7.77c0.08,0.58,0.13,1.18,0.06,1.76c-0.14,1.1-0.98,1.84-2.09,1.93c-0.54,0.04-1.08,0.03-1.62,0.03
	c-1.07,0-2.13-0.01-3.2-0.01C329.06,31.96,328,31.96,326.95,31.96C326.95,31.96,326.95,31.96,326.95,31.96z M332.48,27.81
	c0.03-0.04,0.07-0.07,0.1-0.11c-0.24-0.46-0.44-0.94-0.71-1.38c-0.77-1.22-1.87-2.08-3.12-2.74c-1.45-0.77-3.01-1.19-4.67-0.83
	c-2.66,0.57-4.47,2.11-5.32,4.72c-0.1,0.29-0.01,0.37,0.26,0.36c0.06,0,0.11,0,0.17,0c4.28-0.01,8.55-0.01,12.83-0.02
	C332.17,27.81,332.33,27.81,332.48,27.81z"/>
<path class="st0" d="M289.9,31.99c0.13,0.8,0.42,1.48,0.8,2.13c0.78,1.34,1.96,2.21,3.39,2.78c1.26,0.49,2.55,0.66,3.89,0.5
	c1.37-0.16,2.59-0.62,3.7-1.46c1.57-1.19,3.71-0.31,3.97,1.61c0.1,0.7-0.18,1.27-0.69,1.73c-1.7,1.55-3.68,2.54-5.94,2.96
	c-2.49,0.46-4.92,0.35-7.26-0.68c-3.89-1.72-6.22-4.73-7.16-8.82c-1.19-5.17,1.4-11.15,6.72-13.7c1.94-0.93,4.03-1.26,6.2-1.01
	c1.71,0.19,3.34,0.64,4.79,1.55c2.92,1.82,4.74,4.44,5.45,7.81c0.18,0.85,0.36,1.71,0.22,2.59c-0.18,1.13-1,1.89-2.15,1.96
	c-0.73,0.04-1.46,0.02-2.19,0.02c-4.4,0-8.81,0-13.21,0C290.28,31.96,290.11,31.98,289.9,31.99z M303.48,27.79
	c-0.04-0.17-0.05-0.32-0.12-0.44c-0.26-0.48-0.48-0.99-0.8-1.42c-0.86-1.18-2.03-1.98-3.33-2.59c-0.93-0.44-1.92-0.72-2.95-0.71
	c-1.99,0.02-3.69,0.75-5.05,2.21c-0.78,0.83-1.3,1.8-1.57,2.95C294.26,27.79,298.84,27.79,303.48,27.79z"/>
<path class="st0" d="M147.59,13.59c-0.2,0-0.34,0-0.49,0c-2.19,0-4.38,0-6.57-0.01c-0.64,0-1.28-0.01-1.87-0.33
	c-1.11-0.6-1.69-1.89-1.39-3.07c0.32-1.26,1.35-2.06,2.69-2.06c5.28,0,10.56,0,15.84,0c1.63,0,3.26,0.03,4.89-0.01
	c1.45-0.04,2.67,1.12,2.75,2.53c0.08,1.49-1.07,2.79-2.54,2.91c-0.32,0.03-0.65,0.03-0.98,0.03c-2.17,0-4.34,0.02-6.5-0.01
	c-0.39,0-0.44,0.13-0.44,0.45c0,3.62-0.01,7.25-0.01,10.87c0,4.82,0,9.64-0.01,14.46c0,0.44-0.03,0.91-0.16,1.32
	c-0.39,1.22-1.59,1.94-2.87,1.78c-1.24-0.16-2.3-1.26-2.32-2.54c-0.04-1.83-0.02-3.67-0.03-5.5c0-6.69,0-13.38,0-20.06
	C147.59,14.12,147.59,13.88,147.59,13.59z"/>
<path class="st0" d="M229.82,19.44c0.49-0.24,0.96-0.49,1.44-0.7c3.7-1.62,8.44-0.63,11.12,2.31c1.93,2.12,2.91,4.6,2.9,7.47
	c-0.02,3.67-0.01,7.34-0.01,11.01c0,0.65-0.09,1.27-0.47,1.82c-0.61,0.88-1.67,1.31-2.64,1.06c-1.1-0.29-1.91-1.2-2-2.27
	c-0.03-0.4-0.06-0.8-0.06-1.21c0-3.58-0.03-7.16,0.03-10.74c0.05-2.69-2.32-4.72-4.43-4.94c-2.17-0.22-3.82,0.55-4.93,2.42
	c-0.45,0.75-0.64,1.59-0.64,2.47c0,3.7,0.01,7.4,0.02,11.11c0,0.93-0.19,1.79-0.88,2.45c-0.79,0.75-1.73,0.99-2.76,0.59
	c-1.05-0.41-1.56-1.23-1.64-2.33c-0.03-0.43-0.02-0.87-0.02-1.31c0-5.89,0.01-11.79,0.01-17.68c0-0.59,0.03-1.16,0.33-1.69
	c1-1.75,3.45-1.78,4.5-0.05C229.74,19.29,229.77,19.35,229.82,19.44z"/>
<path class="st0" d="M209.19,30.21c0-2.92,0-5.84,0-8.76c0-0.48,0.01-0.97,0.11-1.43c0.26-1.24,1.46-2.13,2.66-2.02
	c1.41,0.13,2.41,1.07,2.46,2.42c0.05,1.67,0.03,3.33,0.03,5c0,4.75,0,9.51,0,14.26c0,1.42-0.77,2.44-2.06,2.73
	c-1.52,0.35-3.04-0.76-3.17-2.31c-0.04-0.5-0.05-1.01-0.05-1.51c0-2.8,0-5.59,0-8.39C209.18,30.21,209.18,30.21,209.19,30.21z"/>
<path class="st0" d="M214.5,10.87c-0.02,1.52-1.25,2.7-2.78,2.67c-1.42-0.03-2.62-1.27-2.61-2.72c0.01-1.5,1.29-2.74,2.8-2.71
	C213.35,8.14,214.52,9.39,214.5,10.87z"/>
<path class="st2" d="M0,80c0.09,0.24,0.18,0.49,0.29,0.78c0.07-0.09,0.14-0.14,0.15-0.19c0.77-6.91,7.66-11.61,14.4-9.82
	c2.72,0.72,5.14,2.02,7.32,3.78c0.48,0.39,0.72,0.41,1.09-0.18c1.96-3.14,4.56-5.66,7.68-7.65c0.5-0.32,0.7-0.65,0.7-1.21
	c0-1.43-0.04-2.87,0.06-4.3c0.15-1.99,2.14-3.22,4.02-2.52c1.15,0.43,1.79,1.32,1.89,2.53c0.07,0.79,0.06,1.59,0.05,2.39
	c0,0.42,0.15,0.53,0.57,0.52c1.86-0.03,3.72-0.01,5.72-0.01c0-0.47-0.02-0.98,0-1.5c0.03-0.61,0.01-1.23,0.14-1.82
	c0.33-1.42,1.8-2.44,3.16-2.27c1.51,0.19,2.63,1.47,2.67,3.1c0.03,1.35-0.02,2.71,0.03,4.06c0.01,0.31,0.2,0.76,0.44,0.9
	c4.14,2.37,7.03,5.86,9.28,10.12c0.25-0.38,0.48-0.69,0.66-1.03c2.1-3.77,5.02-6.76,8.66-9.09c0.25-0.16,0.46-0.57,0.48-0.88
	c0.07-1.32,0.01-2.66,0.08-3.98c0.1-1.96,1.33-3.23,3.04-3.22c1.63,0.01,2.87,1.42,2.93,3.36c0.02,0.76,0,1.53,0,2.24
	c2.11,0,4.15,0,6.35,0c0-0.75-0.02-1.55,0-2.36c0.05-1.59,0.84-2.7,2.16-3.09c1.71-0.5,3.5,0.65,3.65,2.45
	c0.12,1.5,0.05,3.02,0.14,4.53c0.02,0.35,0.25,0.84,0.54,1.01c3.28,1.85,5.81,4.46,7.84,7.58c0.14,0.22,0.3,0.42,0.49,0.69
	c0.46-0.34,0.86-0.64,1.27-0.93c2.67-1.92,5.52-3.44,8.89-3.65c4.97-0.31,8.45,2.13,10.88,6.21c3.43,5.74,1.24,11.72-2.56,15.28
	c-1.84,1.72-3.94,3.05-6.43,3.99c0.23,0.26,0.4,0.47,0.6,0.66c2.2,2.13,3.87,4.56,4.5,7.63c1.23,5.98-2.43,11.47-8.44,12.49
	c-2.7,0.46-5.17-0.36-7.45-1.77c-2.3-1.42-4.09-3.38-5.75-5.47c-0.2-0.25-0.39-0.5-0.64-0.82c-0.48,0.51-0.9,1.01-1.37,1.46
	c-3.03,2.91-6.07,5.81-9.12,8.69c-0.49,0.46-1.12,0.79-1.69,1.18c-0.43,0-0.85,0-1.28,0c-0.61-0.38-1.28-0.68-1.82-1.15
	c-2.18-1.91-4.45-3.75-6.43-5.84c-2.03-2.15-4.36-3.47-7.27-3.95c-5.09-0.83-9.53,0.18-13.19,4.06c-2.4,2.55-4.93,5-7.93,6.88
	c-0.43,0-0.85,0-1.28,0c-0.65-0.42-1.36-0.76-1.93-1.26c-2.35-2.11-4.69-4.25-6.98-6.43c-1.17-1.11-2.23-2.33-3.4-3.57
	c-0.2,0.25-0.36,0.44-0.52,0.64c-2.13,2.69-4.48,5.14-7.7,6.55c-5.67,2.49-12.1-0.43-13.8-6.33c-1.14-3.95-0.16-7.56,2.25-10.8
	c0.71-0.95,1.59-1.77,2.48-2.74c-0.32-0.17-0.62-0.35-0.94-0.5c-2.4-1.1-4.56-2.56-6.29-4.55c-1.66-1.91-3.06-3.97-2.73-6.71
	c0.01-0.1-0.02-0.21-0.05-0.46C0.34,84.37,0.17,84.89,0,85.42C0,83.61,0,81.81,0,80z M24.82,87.65c10.7-3.88,21.22-3.88,31.76-0.06
	c0.03-0.32,0.07-0.47,0.05-0.62c-0.77-5.67-2.98-10.5-7.66-14.16c-3.96-3.09-10.9-3.72-15.46-0.71c-4.37,2.89-6.86,7.01-8.07,11.99
	C25.18,85.19,25.05,86.32,24.82,87.65z M62.74,87.63c10.66-3.84,21.2-3.89,31.67-0.07c0.1-0.22,0.14-0.27,0.13-0.32
	c-0.67-5.86-2.87-10.91-7.82-14.45c-4.45-3.18-9.23-3.72-14.15-1.3c-3.75,1.84-6.19,5.02-7.93,8.74
	C63.57,82.51,63.05,84.92,62.74,87.63z M25.55,93.67c0.78,2.27,1.9,4.22,3.14,6.1c0.29,0.44,0.61,0.29,0.96,0.11
	c2.42-1.22,4.99-1.99,7.67-2.35c5.08-0.69,9.93,0.05,14.51,2.36c0.55,0.28,0.87,0.18,1.16-0.33c0.49-0.85,1.06-1.66,1.51-2.53
	c0.56-1.07,1.03-2.19,1.57-3.36C45.83,89.82,35.75,89.65,25.55,93.67z M63.44,93.67c0.12,0.33,0.17,0.59,0.29,0.81
	c0.88,1.66,1.78,3.31,2.64,4.98c0.31,0.59,0.62,0.67,1.25,0.38c7.42-3.44,14.85-3.48,22.24,0.11c0.49,0.24,0.74,0.13,0.96-0.28
	c0.79-1.41,1.63-2.8,2.35-4.24c0.85-1.71,0.82-1.76-0.99-2.38c-6.35-2.2-12.85-2.9-19.51-1.89C69.54,91.63,66.5,92.46,63.44,93.67z
	 M100.14,84.21c0.08,1.81,0.41,3.83,1.76,5.55c0.69,0.88,1.58,1.29,2.67,0.98c1.17-0.33,2.38-0.64,3.45-1.18
	c1.97-0.99,3.71-2.29,4.75-4.33c1.86-3.68-0.6-8.29-4.69-8.79C103.64,75.91,100.06,79.29,100.14,84.21z M19.27,83.75
	c-0.06-0.45-0.1-1.15-0.25-1.81c-0.83-3.62-5.05-6.27-8.48-5.36c-4.37,1.16-6.04,6.62-2.98,10.11c1.83,2.09,4.14,3.57,6.98,4.02
	c1.73,0.28,2.56-0.1,3.43-1.61C18.89,87.52,19.19,85.78,19.27,83.75z M19,98.07c-0.49,0.12-1.01,0.16-1.45,0.37
	c-2.2,1.06-4.08,2.51-5.37,4.6c-0.87,1.4-1.17,2.97-0.75,4.59c0.73,2.81,3.82,3.88,6.57,2.19c1.39-0.86,2.7-1.91,3.89-3.03
	c1.27-1.2,2.21-2.96,0.84-5.33c-0.35-0.6-0.67-1.21-1-1.81C21.14,98.61,20.22,98.13,19,98.07z M103.81,110.63
	c1.78,0.03,3.25-0.92,3.92-2.48c0.76-1.77,0.36-3.44-0.56-5.01c-1.25-2.13-3.16-3.55-5.3-4.69c-0.9-0.47-1.86-0.44-2.78-0.07
	c-1.49,0.59-3.37,4.4-2.97,5.95c0.01,0.03,0.02,0.05,0.02,0.08c0.32,2.3,5.18,6.09,7.04,6.17
	C103.41,110.6,103.65,110.62,103.81,110.63z M70.21,104.41c0.25,0.33,0.41,0.6,0.62,0.82c1.74,1.75,3.52,3.47,5.23,5.25
	c1.59,1.66,4.13,1.31,5.49-0.12c1.65-1.74,3.31-3.45,4.96-5.18c0.19-0.2,0.34-0.43,0.61-0.79C81.4,102.3,75.87,101.96,70.21,104.41z
	 M32.22,104.66c2.16,2.11,4.19,4.21,6.36,6.16c1.27,1.14,3.15,1.08,4.54-0.18c2.04-1.86,3.91-3.91,5.84-5.88
	c0.07-0.07,0.09-0.19,0.13-0.28C44.8,102.13,36.06,102.11,32.22,104.66z"/>
<path class="st2" d="M59.58,0c12.61,0.31,23.43,4.39,32.25,13.28c2.52,2.54,1.97,6.29-1.15,7.77c-1.66,0.79-3.27,0.54-4.79-0.41
	c-0.4-0.25-0.75-0.6-1.09-0.93c-3.85-3.74-8.27-6.58-13.38-8.29c-4.6-1.54-9.34-2.01-14.18-1.74c-7.61,0.41-14.27,3.17-20.17,7.88
	c-1.04,0.83-1.97,1.78-2.97,2.66c-2.06,1.8-4.82,1.72-6.6-0.17c-1.83-1.95-1.79-4.85,0.13-6.73c7.1-6.99,15.61-11.22,25.46-12.77
	c1.02-0.16,2.06-0.24,3.1-0.33C57.39,0.11,58.58,0.06,59.58,0z"/>
<path class="st2" d="M60.03,19.8c6.84,0.29,13.12,2.54,18.19,7.69c1.24,1.26,1.72,2.74,1.17,4.45c-0.54,1.67-1.75,2.63-3.48,2.9
	c-1.23,0.19-2.29-0.24-3.26-1c-1.11-0.87-2.24-1.7-3.38-2.54c-5.36-3.93-15.07-4.23-21.43,1.71c-0.41,0.38-0.83,0.75-1.28,1.08
	c-1.62,1.16-3.76,1.01-5.21-0.34c-1.5-1.39-1.82-3.62-0.72-5.29c0.35-0.53,0.78-1.01,1.25-1.44C46.9,22.31,52.9,20.01,60.03,19.8z"
	/>
<path class="st2" d="M59.68,38.72c3.57,0.03,6.44,2.98,6.4,6.59c-0.04,3.33-3.09,6.33-6.4,6.3c-3.4-0.03-6.37-3.12-6.31-6.56
	C53.43,41.59,56.31,38.7,59.68,38.72z"/>
</svg>
