<svg width="27" height="19" viewBox="0 0 27 19" fill="none" xmlns="http://www.w3.org/2000/svg">
<g clip-path="url(#clip0_1311_2334)">
<path d="M12.6443 18.3996L12.5229 18.3967L5.71641 8.5659L5.70292 8.52465L5.71791 8.46129L5.82733 8.49223L5.84082 8.48339L5.8618 8.50255L5.8603 8.51139L12.5873 18.2287L26.2708 0.348553L1.03236 1.53909L4.56676 6.6416L4.44235 6.72411L0.833008 1.51257L0.891465 1.39764L26.4236 0.193842L26.4866 0.311717L12.6443 18.3996Z" stroke="#DAADFF" stroke-width="0.5"/>
<path d="M3.8053 15.3098L4.43333 6.62833L4.4828 6.61213L26.4056 0.196789L26.4551 0.335292L5.85279 8.53643L5.84979 8.5438L5.8423 8.54085L5.81831 8.5497L5.81082 8.53201L5.78084 8.52317L5.7029 8.52465L5.7059 8.50255L5.72838 8.4274L5.76285 8.41414L24.9442 0.778796L4.57573 6.73884L3.97767 15.0122L8.24203 12.0845L8.32746 12.2053L3.8053 15.3098Z" stroke="#DAADFF" stroke-width="0.5"/>
<path d="M5.71931 8.46276L3.81726 15.1414L3.9616 15.1812L5.86365 8.50248L5.71931 8.46276Z" stroke="#DAADFF" stroke-width="0.5"/>
</g>
<defs>
<clipPath id="clip0_1311_2334">
<rect width="25.6536" height="18.2058" fill="white" transform="translate(0.833008 0.193842)"/>
</clipPath>
</defs>
</svg>
