<svg width="21" height="20" viewBox="0 0 21 20" fill="none" xmlns="http://www.w3.org/2000/svg">
<path fill-rule="evenodd" clip-rule="evenodd" d="M10.4999 2C10.1727 2 9.90735 2.26531 9.90735 2.59259V9H3.09259C2.76531 9 2.5 9.26531 2.5 9.59259C2.5 9.91987 2.76531 10.1852 3.09259 10.1852H9.90735V17.4074C9.90735 17.7347 10.1727 18 10.4999 18C10.8272 18 11.0925 17.7347 11.0925 17.4074V10.1852H17.9074C18.2347 10.1852 18.5 9.91987 18.5 9.59259C18.5 9.26531 18.2347 9 17.9074 9H11.0925V2.59259C11.0925 2.26531 10.8272 2 10.4999 2Z" fill="#382A3F"/>
</svg>
