<svg width="764" height="302" viewBox="0 0 764 302" fill="none" xmlns="http://www.w3.org/2000/svg">
<path d="M37.433 298.594L3.74532 246.767L693.684 163.709L37.433 298.594Z" fill="#7CE0FF"/>
<g clip-path="url(#clip0_21_49)">
<path d="M762.873 134.064L711.565 180.337L702.515 159.266L697.242 146.983L697.302 146.862L762.873 134.064Z" fill="white"/>
<path d="M762.873 134.064L697.302 146.862L697.242 146.983L687.818 165.788L694.561 140.739L694.562 140.735L762.873 134.064Z" fill="#D1D1D1"/>
<path d="M762.873 134.064L694.562 140.735L686.966 123.052L762.873 134.064Z" fill="white"/>
<path d="M697.242 146.983L702.515 159.266L687.818 165.788L697.242 146.983Z" fill="#F2F2F2"/>
</g>
<g clip-path="url(#clip1_21_49)">
<path d="M405.755 123.843C404.256 123.804 402.323 122.96 401.79 122.115C400.834 120.591 400.29 118.751 399.722 116.81C399.468 115.947 399.225 115.084 398.932 114.246L398.639 113.382L397.567 113.404C397.378 113.399 397.201 113.394 397.013 113.364C396.799 113.346 396.585 113.328 396.384 113.323C395.93 113.311 395.273 113.344 394.733 113.77C394.114 114.258 393.502 114.519 393.011 114.506C392.494 114.492 392.049 114.153 391.7 113.502C390.931 112.059 390.554 110.097 390.734 108.516C390.863 107.449 391.892 106.191 392.816 105.082L392.96 104.897C395.057 102.345 395.724 94.6819 393.52 92.1562C392.761 91.2926 391.248 90.7997 390.139 90.7707C389.547 90.7552 389.04 90.8552 388.643 91.0841C388.182 91.349 387.775 91.4769 387.435 91.468C386.717 91.4491 386.142 90.7541 385.411 89.778C385.265 89.5853 385.119 89.3926 384.984 89.2254C384.545 88.6724 384.322 88.0118 384.401 87.4347C384.466 86.8697 384.794 86.3621 385.374 85.9113C385.837 85.5583 386.264 85.1414 386.678 84.7493C387.389 84.0627 388.062 83.4256 388.709 83.2537C392.036 82.3712 391.378 79.5963 391.149 78.6837C390.57 76.2635 389.877 73.8277 389.207 71.4807C388.848 70.2373 388.503 68.9942 388.157 67.7512C387.916 66.8508 388.203 65.4984 388.876 64.3702C389.377 63.5271 390.023 62.927 390.569 62.8028C390.912 62.7236 391.266 62.6825 391.619 62.6917C393.572 62.7429 395.214 64.0703 395.521 65.8538C395.805 67.5107 396.064 69.1797 396.336 70.8489C396.79 73.7317 397.254 76.703 397.834 79.6143C398.09 80.8928 399.333 82.5623 400.724 82.9135C404.269 83.7996 406.185 86.2296 407.107 91.0135C407.239 91.7221 406.962 92.6719 406.631 93.7838C406.437 94.421 406.244 95.0833 406.086 95.8095L405.524 98.4768L407.917 97.1544C409.58 96.2409 411.193 95.3388 412.779 94.4611C416.99 92.116 420.957 89.9155 425.009 87.8055C425.7 87.4458 426.612 87.306 427.561 87.1546C428.207 87.0581 428.866 86.9495 429.526 86.7779C432.421 85.9975 435.016 85.6499 437.46 85.7139C440.598 85.7961 443.428 86.5627 446.101 88.043C448.724 89.4968 451.104 91.0449 453.207 92.6236C455.074 94.045 456.972 94.7621 459.001 94.8152C460.488 94.8542 462.034 94.5421 463.742 93.8439C465.297 93.2172 466.959 92.8452 468.722 92.4507C470.257 92.1005 471.843 91.7517 473.383 91.2002C475.929 90.2973 478.454 89.2302 480.902 88.1988C482.712 87.4403 484.574 86.6454 486.434 85.9386L486.905 85.762C490.307 84.4534 493.823 83.0974 497.352 82.1825C497.822 82.0563 498.265 82.0049 498.693 82.0161C500.546 82.0646 501.911 83.3722 502.162 85.3557C502.435 87.4531 500.372 89.1871 498.216 89.6469C496.263 90.0617 494.403 90.7811 492.594 91.4892C491.779 91.8078 490.951 92.1261 490.123 92.4193C489.08 92.7823 488.024 93.1198 486.968 93.4699C484.806 94.1688 482.567 94.9035 480.412 95.8166C471.919 99.4473 465.078 101.107 458.216 101.191C458.014 101.186 457.812 101.181 457.623 101.176C452.633 101.045 448.877 98.5669 446.598 96.5177C443.85 94.0407 440.844 92.791 437.391 92.7006C434.354 92.621 431.356 93.4617 428.824 94.3021C424.741 95.6432 420.879 97.7079 417.144 99.7003L416.211 100.192C412.745 102.041 409.512 104.134 405.958 106.484C404.777 107.272 404.95 109.316 405.121 110.026C405.495 111.635 405.92 113.232 406.344 114.83C406.907 116.948 407.48 119.154 407.94 121.319C408.098 122.041 407.981 122.642 407.617 123.073C407.213 123.554 406.512 123.838 405.743 123.817L405.731 123.817L405.755 123.843Z" fill="#382A3F"/>
<path d="M48.3223 185.917C48.0703 185.91 47.8189 185.879 47.5552 185.834C47.1662 185.761 46.487 185.214 45.8846 184.141C45.029 182.62 44.6629 180.709 45.0551 179.699C45.5427 178.415 45.7849 177.351 45.8232 176.37C45.9819 171.753 46.8634 167.948 48.583 164.404C49.3027 162.925 49.5595 161.307 49.8023 159.739C49.953 158.799 50.0901 157.896 50.3265 157.058C50.7447 155.533 51.2644 153.985 51.7576 152.487C52.1819 151.214 52.6065 149.928 52.9807 148.641C53.1879 147.954 53.1045 147.284 53.0444 146.691C53.0245 146.489 53.0045 146.287 52.9972 146.085L52.9448 144.233L51.2483 144.969C49.641 145.67 48.0218 146.345 46.4155 147.008C42.8458 148.489 39.1484 150.029 35.6825 151.877C30.106 154.867 24.6447 158.275 19.3631 161.561L16.8506 163.12C15.0941 164.22 13.3854 165.422 11.7282 166.587C10.3408 167.558 8.9143 168.579 7.47784 169.498C7.15719 169.704 6.75096 169.806 6.28469 169.794C5.0497 169.762 3.65904 168.932 2.90771 167.766C2.35043 166.896 2.14798 165.958 2.33421 165.107C2.50487 164.369 2.97534 163.739 3.69292 163.304C5.99982 161.891 8.29411 160.478 10.5884 159.065C17.8178 154.595 25.3036 149.969 32.8773 145.835C36.4084 143.901 40.3068 142.391 44.0652 140.928C46.5626 139.948 49.1614 138.946 51.65 137.815C54.3941 136.565 56.9981 134.883 57.5035 130.992L57.5846 130.302C57.9688 127.189 58.3357 124.252 60.871 122.304L61.2314 122.024C61.7464 121.622 62.3774 121.122 62.7429 121.132C62.9697 121.138 63.2397 121.422 63.3866 121.589C63.8032 122.053 64.2722 122.443 64.7415 122.821C66.1618 123.966 66.5794 124.393 65.8616 125.797C65.3435 126.803 65.2007 127.92 65.0308 129.112C64.9533 129.664 64.8748 130.254 64.7446 130.892L64.4669 132.346L65.9413 132.384C67.5544 132.427 69.1177 132.442 70.6306 132.457C72.0552 132.469 73.4547 132.48 74.8283 132.516C76.9076 132.571 78.595 132.665 80.1543 132.832C83.5751 133.186 87.7824 136.255 88.8868 140.792C90.4598 147.18 87.9157 152.351 84.9429 157.524C84.3219 158.603 83.7133 159.696 83.1042 160.8C81.503 163.68 79.8616 166.646 77.9502 169.329C76.6283 171.17 74.6335 172.704 72.703 174.19L71.9437 174.775C70.6596 174.691 68.0835 172.898 67.8022 172.085C66.8874 169.454 68.4073 163.903 70.4953 162.183C71.1784 161.621 71.5982 161.481 71.6993 161.471C71.963 161.516 72.2525 161.536 72.5297 161.543C74.8737 161.605 76.4802 160.451 77.4515 158.033C78.0183 156.613 78.6741 155.169 79.3033 153.775C80.2669 151.647 81.2578 149.444 82.0235 147.173C82.5015 145.775 82.9362 141.694 81.1323 140.753C79.0047 139.652 76.4743 139.006 73.9917 138.941C73.7019 138.934 73.412 138.926 73.1341 138.944C71.4176 139 69.7781 139.486 68.1891 139.973C67.1339 140.298 66.1298 140.599 65.1163 140.774C62.1394 141.288 61.3836 143.182 60.8798 145.083C59.9012 148.747 58.7321 152.456 57.5919 156.027C56.9327 158.088 56.2857 160.161 55.6639 162.235C55.2628 163.584 54.9494 164.961 54.6498 166.288C54.507 166.927 54.3641 167.565 54.2087 168.203C54.0672 168.791 53.9131 169.379 53.759 169.967C53.3951 171.342 53.0173 172.768 52.8026 174.223C52.6784 175.114 52.8079 175.948 52.938 176.758C53.0144 177.213 53.0788 177.643 53.0935 178.046C53.1154 178.651 53.1869 179.295 53.2583 179.939C53.3914 181.114 53.5675 182.579 53.1749 183.123C52.22 184.432 50.6033 185.977 48.3727 185.918L48.3223 185.917Z" fill="#382A3F"/>
<path d="M599.528 174.799C598.938 174.714 598.196 174.017 597.714 173.104C597.185 172.114 597.05 171.025 597.379 170.358C598.916 167.155 600.347 164.754 601.898 162.811C604.484 159.573 607.183 156.339 609.802 153.216C613.096 149.288 616.496 145.212 619.697 141.091C623.867 135.71 627.895 130.084 631.79 124.655C633.483 122.302 635.165 119.936 636.87 117.596C637.11 117.277 637.301 116.907 637.468 116.51C638.33 114.44 638.968 112.626 638.113 111.27C637.257 109.901 635.31 109.687 633.045 109.549C632.73 109.537 632.415 109.525 632.087 109.512L630.412 109.447L630.336 109.457C622.169 110.211 613.501 111.235 605.131 114.627C600.196 116.627 595.055 118.418 590.08 120.153C587.535 121.036 585.003 121.921 582.469 122.843C581.689 123.128 580.992 123.529 580.321 123.918L579.818 124.201C578.747 124.802 577.676 125.101 576.719 125.064C574.842 124.991 573.72 123.675 573.642 121.442C573.614 120.547 575.464 118.376 577.094 117.684C584.61 114.486 592.438 111.728 599.165 109.382C603.628 107.829 608.441 106.365 614.779 104.621C617.559 103.859 620.516 103.407 623.371 102.976L623.777 102.916C626.366 102.525 629.031 102.112 631.619 102.087C631.984 102.088 632.363 102.09 632.728 102.105C636.961 102.269 640.655 103.609 643.701 106.07C644.655 106.837 645.475 108.469 645.576 109.77C645.99 115.027 644.529 119.858 641.247 124.114C639.029 126.989 636.87 129.966 634.777 132.845L632.725 135.663C632.205 136.373 631.545 137.469 631.775 138.687C632.029 139.944 633.084 140.716 633.86 141.187C637.459 143.379 641.024 145.798 644.465 148.148C645.46 148.829 646.456 149.51 647.464 150.179C648.239 150.701 648.91 151.949 649.122 153.292C649.284 154.319 649.173 155.247 648.814 155.711C648.123 156.617 647.083 156.765 646.339 156.737C645.281 156.695 644.137 156.273 643.106 155.528C638.038 151.88 632.758 148.463 628.203 145.553C627.896 145.352 627.508 145.248 627.068 145.231C626.186 145.197 624.898 145.55 624.252 146.269C622.303 148.385 620.461 150.644 618.673 152.829L617.747 153.952C617.111 154.734 616.463 155.502 615.814 156.283C613.856 158.639 611.831 161.067 609.992 163.591C608.753 165.294 607.687 167.406 606.821 169.88C606.112 171.905 601.782 174.912 599.691 174.831C599.628 174.828 599.577 174.827 599.514 174.824L599.528 174.799Z" fill="#382A3F"/>
<path d="M305.454 141.061C303.853 141.019 302.324 140.677 300.791 139.995C298.122 138.829 296.403 137.059 295.804 134.89C295.182 132.645 295.831 130.031 297.624 127.521C301.119 122.627 306.448 120.424 311.152 118.482C311.955 118.151 312.831 117.947 313.77 117.732C314.594 117.54 315.444 117.348 316.284 117.055C317.226 116.715 318.642 115.644 318.687 114.386C318.972 106.888 318.255 101.039 316.42 95.9673L316.021 94.8613L311.737 96.1469C309.182 96.911 306.729 97.6527 304.264 98.3688C303.845 98.4963 303.425 98.6238 302.993 98.7636C301.785 99.1475 300.652 99.5208 299.554 99.555C299.441 99.5521 299.328 99.5491 299.227 99.5465C297.437 99.4996 296.501 98.644 296.418 97.0049C296.283 94.4452 296.889 93.4537 298.87 92.9264C302.972 91.8376 307.386 90.3792 312.761 88.3415C313.831 87.9288 314.515 87.3549 314.851 86.5704C315.335 85.412 314.847 84.2912 314.442 83.374C314.264 82.9538 314.049 82.4948 314.044 82.2177C314.023 81.5875 313.938 80.9557 313.853 80.3491C313.715 79.3759 313.565 78.3646 313.832 77.7924C314.313 76.7599 315.349 75.7293 316.37 75.756C316.622 75.7626 316.872 75.8321 317.121 75.952C318.354 76.5635 319.654 77.9323 320.705 79.6975C320.996 80.171 321.01 81.0528 321.034 82.0607C321.043 82.678 321.064 83.3333 321.134 84.0277L321.303 85.7572L322.898 85.0435C323.906 84.5914 324.877 84.1257 325.847 83.6726C328.133 82.5866 330.291 81.5602 332.531 80.7878C333.205 80.5536 334.041 80.437 334.872 80.4588C335.603 80.4779 336.306 80.5971 336.893 80.8139C338.429 81.383 338.603 82.9489 338.254 84.2367C337.99 85.1742 337.449 86.0918 336.988 86.3442C334.403 87.8001 331.645 89.0753 328.977 90.3275L327.509 91.0194C327.164 91.1741 326.733 91.2761 326.073 91.4351C325.667 91.5252 325.185 91.6385 324.613 91.7998L323.572 92.0748L326.272 114.66L327.511 114.529C329.079 114.356 330.572 114.168 332.027 113.979C335.127 113.582 338.038 113.205 340.928 113.104C343.112 113.023 345.281 113.017 347.385 113.072C350.007 113.141 352.587 113.309 355.077 113.588C355.51 113.927 356.314 115.472 356.389 116.456C356.455 117.301 356.234 118.038 355.753 118.58C355.221 119.183 354.378 119.564 353.368 119.625C352.635 119.669 351.84 119.686 350.845 119.66C350.24 119.644 349.648 119.629 349.043 119.588C348.426 119.571 347.809 119.53 347.204 119.514C345.894 119.48 344.871 119.504 343.911 119.592C340.965 119.867 338.026 120.382 335.176 120.874C333.947 121.094 332.706 121.3 331.464 121.507C330.763 121.313 330.098 121.207 329.505 121.191C325.662 121.091 324.744 124.353 324.076 126.741C323.937 127.253 323.798 127.753 323.621 128.227C321.404 134.415 317.383 138.2 311.001 140.161C308.891 140.799 307.143 141.08 305.48 141.037L305.454 141.061ZM315.435 124.915C315.119 124.945 314.792 124.936 314.464 124.94C313.581 124.942 312.585 124.941 311.678 125.371C309.686 126.314 307.739 127.484 305.887 128.858C305.076 129.467 304.55 130.309 304.089 131.065C303.904 131.363 303.733 131.648 303.537 131.92L302.398 133.502L304.318 133.867C304.632 133.925 304.969 134.035 305.307 134.144C305.945 134.35 306.608 134.556 307.238 134.573C307.742 134.586 308.174 134.471 308.545 134.242C310.687 132.888 312.72 131.317 314.677 129.794C315.398 129.233 316.106 128.685 316.839 128.138L317.688 127.493L316.27 124.811L315.449 124.878L315.435 124.915Z" fill="#382A3F"/>
<path d="M209.194 241.494C207.997 241.447 206.979 240.702 206.384 239.445C205.988 238.611 205.94 237.236 206.207 236.855C207.464 235.04 208.931 233.308 210.359 231.625C211.245 230.576 212.144 229.527 212.993 228.439C214.52 226.495 216.083 224.578 217.646 222.649C221.939 217.361 226.365 211.889 230.147 206.102C230.509 205.562 230.896 205.01 231.309 204.447C233.336 201.628 235.844 198.122 234.78 193.345L234.598 192.506L233.745 192.385C232.779 192.247 231.787 192.145 230.791 192.107C227.214 191.968 223.458 192.515 218.992 193.828C216.912 194.441 214.713 194.859 212.578 195.268C211.167 195.541 209.705 195.824 208.266 196.159L206.968 196.461C202.945 197.401 198.782 198.373 194.736 199.564C191.597 200.488 188.5 201.615 185.493 202.72C184.482 203.084 183.471 203.461 182.447 203.824L179.582 204.847C174.772 206.55 169.796 208.322 164.944 210.137C163.868 210.549 162.827 211.05 161.811 211.552C160.139 212.369 158.557 213.152 156.932 213.404C155.975 213.367 154.366 212.246 153.293 210.957C153.018 210.556 153.043 208.957 153.336 208.553C155.231 206.85 157.507 205.427 159.71 204.58C167.79 201.48 176.401 198.387 185.286 195.368C186.181 195.063 187.076 194.758 187.971 194.452C192.945 192.73 198.098 190.965 203.256 190.044C205.568 189.63 207.838 189 210.044 188.392C214.125 187.266 217.989 186.194 222.108 186.353C222.423 186.366 222.75 186.378 223.077 186.416C223.241 186.422 223.404 186.429 223.581 186.436C224.916 186.487 226.223 186.299 227.504 186.109C228.709 185.942 229.851 185.772 230.922 185.813C231.212 185.825 231.501 185.848 231.777 185.897C234.66 186.374 237.504 187.542 239.574 189.122C241.633 190.688 242.429 198.126 240.872 201.19C237.007 208.787 232.585 215.443 227.328 221.525C224.237 225.109 221.289 228.899 218.434 232.568C216.695 234.806 214.968 237.044 213.192 239.243C211.973 240.757 210.554 241.559 209.206 241.507L209.194 241.494Z" fill="#382A3F"/>
<path d="M171.449 158.732C169.723 158.687 167.788 156.949 167.763 154.53C167.732 151.885 168.179 149.24 168.656 146.444C168.864 145.241 169.059 144.05 169.229 142.846L169.479 141.014C169.918 137.751 170.369 134.477 170.845 131.215C171.107 129.396 171.801 128.445 174.83 128.335C174.956 128.339 175.082 128.342 175.196 128.345C176.557 128.381 177.844 128.805 178.136 131.645C178.217 132.39 177.955 133.265 177.691 134.19C177.497 134.865 177.302 135.552 177.195 136.28C177.056 137.233 177.056 138.203 177.054 139.235C177.042 139.713 177.053 140.23 177.039 140.784L176.965 143.602L179.106 141.77C180.306 140.743 181.43 139.702 182.516 138.698C184.829 136.555 187.013 134.547 189.435 133.075C191.511 131.819 193.935 131.228 196.67 131.3C198.182 131.339 199.752 131.594 201.341 132.039C203.344 132.608 205.34 133.441 207.286 134.247C209.282 135.08 211.341 135.927 213.481 136.537C213.907 136.662 214.372 136.724 214.851 136.737C216.338 136.776 217.913 136.313 219.311 135.897L219.756 135.757C225.844 133.978 231.041 130.525 236.059 127.206C237.188 126.455 238.33 125.704 239.472 124.966C240.178 124.506 241.282 124.233 242.265 124.259C242.58 124.267 242.881 124.312 243.132 124.382C243.342 124.551 243.915 125.762 244.039 126.811C244.275 128.895 244.295 130.028 242.202 130.994C240.351 131.839 238.766 133.132 237.22 134.389C235.725 135.609 234.308 136.755 232.738 137.47C232.062 137.779 231.385 138.089 230.709 138.411C226.623 140.319 222.768 142.107 218.125 142.665C216.886 142.809 215.636 142.865 214.413 142.833C208.906 142.688 204.079 140.686 199.67 138.556C198.96 138.21 197.982 137.995 197.012 137.97C196.256 137.95 194.854 138.027 193.913 138.795C190.228 141.796 186.724 145.104 183.336 148.302L181.953 149.613C180.854 150.655 179.778 151.76 178.754 152.829C176.796 154.868 174.942 156.796 172.783 158.364C172.41 158.644 171.965 158.77 171.461 158.757L171.449 158.732Z" fill="#382A3F"/>
<path d="M455.542 219.718C455.201 219.704 454.888 219.642 454.59 219.53C453.582 219.163 452.863 218.53 452.504 217.698C452.134 216.814 452.201 215.759 452.699 214.619L453.473 212.873C456.253 206.594 459.129 200.092 462.334 193.905C466.875 185.137 472.017 175.209 475.571 164.891C475.812 164.208 476.19 161.312 474.622 160.748C473.764 160.425 472.469 159.996 471.209 159.948C470.655 159.926 470.148 159.982 469.676 160.102C465.023 161.358 460.459 162.907 456.596 164.269C455.535 164.643 454.519 165.133 453.529 165.598C452.218 166.228 450.984 166.822 449.711 167.126C449.036 167.288 448.276 167.36 447.508 167.33C446.563 167.293 445.65 167.094 444.955 166.778C444.484 166.57 444.194 166.244 444.035 165.784C443.785 165.082 443.912 164.079 444.348 163.239C444.976 162.029 446.386 160.786 447.705 160.283C453.07 158.249 458.733 156.352 465 154.479C466.838 153.933 468.741 153.654 470.758 153.354C471.609 153.224 472.471 153.106 473.322 152.95C480.232 154.024 482.923 156.849 483.226 163.336C483.31 165.078 482.5 167.1 481.701 168.845C479.909 172.756 478.015 176.701 476.189 180.51C474.184 184.703 472.111 189.031 470.14 193.339C466.789 200.691 463.569 208.238 460.447 215.549L459.836 216.974C459.156 218.573 457.256 219.759 455.517 219.691L455.542 219.718Z" fill="#382A3F"/>
<path d="M346.953 199.043C345.177 198.974 344.812 197.977 344.686 197.645C344.286 196.571 344.275 195.55 344.675 194.684C345.13 193.694 346.106 192.913 347.488 192.4C351.596 190.896 355.814 189.485 359.904 188.119L363.317 186.979C364.736 186.505 366.168 186.007 367.587 185.52C371.334 184.229 375.221 182.893 379.085 181.821C382.528 180.871 386.115 180.116 389.588 179.382C391.432 179 393.277 178.605 395.11 178.185C396.879 177.775 398.649 177.352 400.419 176.93C402.711 176.376 405.004 175.822 407.307 175.32C410.424 174.634 413.603 174.002 416.679 173.39C417.951 173.137 419.21 172.884 420.468 172.63C420.881 172.722 421.282 172.788 421.671 172.853C423.564 173.166 424.616 173.345 425.417 175.468C426.058 177.168 425.469 177.712 424.42 178.717C424.158 178.971 423.896 179.226 423.647 179.48C423.383 179.76 422.7 180.149 420.899 180.394C419.58 180.57 418.201 180.668 416.872 180.767C414.823 180.914 412.697 181.071 410.624 181.507C406.197 182.444 401.75 183.582 397.443 184.687C395.418 185.201 393.391 185.727 391.366 186.228C390.398 186.467 389.418 186.681 388.451 186.896C387 187.217 385.499 187.55 384.019 187.958L382.336 188.422C375.144 190.411 367.696 192.465 360.408 194.639C357.639 195.464 354.91 196.529 352.271 197.561L350.247 198.352C349.018 198.82 347.886 199.054 346.967 199.018L346.953 199.043Z" fill="#382A3F"/>
<path d="M309.528 226.514C307.865 226.45 306.916 225.896 306.98 223.253C307.082 219.34 307.236 215.352 307.398 211.504L307.575 206.963C307.79 201.429 308.005 195.882 308.22 190.348L308.509 182.889C308.8 175.065 309.102 166.964 309.512 159.006C309.568 157.887 310.231 156.401 310.839 156.022C311.705 155.476 312.574 155.195 313.317 155.223C314.955 155.287 315.967 156.838 315.877 159.165C315.435 170.863 314.981 182.573 314.527 194.271L314.174 203.365L313.97 208.61C313.787 213.339 313.616 218.069 313.382 222.796C313.222 225.939 312.292 226.495 309.756 226.498L309.491 226.488L309.528 226.514Z" fill="#382A3F"/>
<path d="M537.874 75.3233C537.648 75.2796 536.964 74.9091 536.144 73.9559C535.153 72.7966 534.752 71.7284 534.8 71.3393C535.102 68.4889 535.729 65.7099 536.321 63.3581C536.618 62.1319 537.014 60.946 537.438 59.698C537.822 58.5244 538.232 57.3137 538.541 56.0878C539.411 52.7234 540.524 48.2698 541.437 43.7354C542.292 39.5018 542.85 36.0033 543.201 32.7386C543.572 29.147 543.831 28.9019 547.019 28.9854L547.284 28.9924C548.33 29.0197 549.312 29.5617 549.982 30.4607C550.688 31.411 550.934 32.6137 550.641 33.6889C550.025 36.0274 549.483 38.4183 548.969 40.7343C548.554 42.6248 548.126 44.5024 547.661 46.379C546.985 49.0812 546.245 51.8068 545.52 54.4573C545.059 56.1703 544.585 57.883 544.137 59.6089C543.997 60.1341 543.945 60.6491 543.882 61.1511C543.85 61.3895 543.831 61.6408 543.787 61.8789C543.62 62.9449 543.492 64.0118 543.35 65.0784C543.03 67.6891 542.725 70.1617 541.909 72.4573C541.555 73.4428 539.756 74.7178 537.873 75.3359L537.874 75.3233Z" fill="#382A3F"/>
<path d="M439.305 145.937C438.549 145.908 437.969 145.583 437.453 144.908C436.72 143.96 436.307 142.256 436.593 141.385C436.951 140.278 438.33 138.883 439.259 138.679C444.363 137.517 449.624 136.537 454.695 135.574C457.148 135.115 459.6 134.656 462.041 134.184C465.753 133.459 469.454 132.682 473.397 131.865L478.394 130.837C478.699 131.114 479.03 131.366 479.348 131.63C480.326 132.424 481.341 133.244 481.612 134.073C481.905 134.979 481.206 137.056 480.359 137.766L480.228 137.875C478.975 138.947 477.776 139.959 476.276 139.901C475.647 139.876 474.986 139.674 474.244 139.293C473.613 138.966 472.888 138.787 472.019 138.753C470.507 138.694 468.852 139.096 467.26 139.475C466.611 139.627 465.974 139.791 465.364 139.906C461.551 140.627 457.707 141.498 453.99 142.349L451.916 142.823C450.974 143.039 450.02 143.228 449.079 143.419C446.422 143.958 443.675 144.507 441.111 145.554C440.432 145.83 439.822 145.957 439.293 145.936L439.305 145.937Z" fill="#382A3F"/>
<path d="M527.424 167.771C526.517 167.736 525.59 167.246 524.974 166.87C524.345 166.493 523.685 164.981 523.688 163.922C523.696 163.394 524.434 162.251 525.381 161.57C529.132 158.881 533.007 156.209 536.754 153.621C539.463 151.748 542.185 149.876 544.883 147.978C545.921 147.25 546.899 146.418 547.826 145.623C548.583 144.972 549.313 144.358 550.067 143.782C550.522 143.435 551.113 143.168 551.729 142.889C551.934 142.797 552.127 142.703 552.333 142.611C554.028 142.802 555.02 143.899 555.613 146.189C555.777 146.826 554.91 148.681 553.963 149.375C549.859 152.391 545.57 155.311 541.423 158.135C539.155 159.685 536.887 161.235 534.631 162.797C532.907 163.99 531.137 165.395 529.216 167.097C528.655 167.592 528.091 167.809 527.424 167.783L527.424 167.771Z" fill="#382A3F"/>
<path d="M134.167 138.062C133.566 137.908 132.952 137.753 132.338 137.611C130.935 137.259 129.469 136.906 128.093 136.467C126.142 135.837 124.205 135.182 122.267 134.527C119.105 133.449 115.842 132.344 112.563 131.402C111.9 131.208 111.234 131.115 110.581 131.01C108.621 130.719 107.783 130.483 107.372 129.314C106.844 127.814 106.829 125.975 107.31 124.943C107.67 124.184 108.856 124.152 109.209 124.162C109.612 124.172 110.014 124.233 110.427 124.357C112.705 125.009 115.035 125.599 117.303 126.174C118.932 126.582 120.56 127.002 122.175 127.435C124.141 127.965 126.106 128.533 128.072 129.088C130.613 129.809 133.141 130.53 135.696 131.201C137.988 131.803 138.587 133.002 138.043 135.96C137.704 137.827 136.817 138.018 134.168 138.049L134.167 138.062Z" fill="#382A3F"/>
<path d="M282.7 197.445C281.327 197.392 279.9 196.782 279.591 196.292C278.403 194.394 277.513 191.966 276.957 189.06C276.517 186.737 276.335 184.299 276.162 181.924C276.111 181.28 276.073 180.623 276.023 179.979L276.2 179.96L276.388 175.13C276.558 171.068 277.169 170.928 279.727 171.015C282.233 171.112 283.741 172.884 283.722 175.654L283.704 176.132C283.699 178.21 283.691 180.352 283.46 182.409C283.1 185.846 283.83 189.137 285.681 192.472C286.2 193.399 286.152 194.644 285.555 195.729C284.984 196.765 284.038 197.409 283.027 197.458C282.914 197.453 282.8 197.462 282.687 197.457L282.7 197.445Z" fill="#382A3F"/>
<path d="M285.061 146.886C284.822 146.88 284.57 146.861 284.294 146.828C281.251 146.459 279.514 145.381 278.474 143.213C277.589 141.377 276.563 139.6 275.562 137.886C274.452 135.968 273.306 133.986 272.388 131.96C271.386 129.756 270.908 127.288 271.051 125.201C271.095 124.485 272.485 122.947 273.514 122.647C273.984 122.508 274.427 122.444 274.818 122.454C275.511 122.472 276.502 122.7 277.137 124.441C278.738 128.802 280.872 133.014 282.935 137.072L283.031 137.251C283.475 138.131 284.24 138.743 284.92 139.277C285.328 139.602 285.723 139.915 285.992 140.237C286.64 141.022 287.185 141.892 287.765 142.827C287.935 143.096 288.105 143.352 288.274 143.621C287.67 146.451 286.737 146.943 285.074 146.899L285.061 146.886Z" fill="#382A3F"/>
<path d="M360.88 69.2027C359.872 69.1763 358.442 68.8745 357.571 66.5096C356.499 63.6231 355.275 60.7453 354.1 57.9569C353.423 56.34 352.734 54.7228 352.071 53.1063C351.656 52.0755 351.647 50.9672 352.063 50.0085C352.452 49.1246 353.151 48.4378 354.056 48.0837C354.26 48.0009 354.488 47.9691 354.727 47.9754C356.101 48.0114 357.693 49.3123 358.357 50.954C359.317 53.2834 360.353 55.6275 361.366 57.8828C362.092 59.501 362.807 61.1188 363.508 62.7489C363.829 63.5003 364.06 64.3248 364.197 64.8572C364.22 64.946 364.243 65.0221 364.266 65.0983C364.15 68.558 363.176 69.1747 361.094 69.2209L360.867 69.215L360.88 69.2027Z" fill="#382A3F"/>
<path d="M527.93 148.542C527.301 148.518 526.345 148.115 525.523 147.517C524.639 146.878 523.822 146.153 522.957 145.376C521.701 144.257 520.408 143.098 518.89 142.246C516.964 141.151 515.879 139.849 515.852 138.588C515.822 137.416 516.741 136.166 518.448 135.086L519.263 134.576C520.067 134.985 520.871 135.394 521.676 135.791C524.065 136.979 526.317 138.1 528.434 139.467C531.141 141.222 532.14 142.81 531.88 144.954C531.62 147.085 530.363 148.284 528.145 148.538C528.082 148.535 528.019 148.546 527.943 148.543L527.93 148.542Z" fill="#382A3F"/>
<path d="M349.44 71.6986C348.936 71.6854 348.347 71.5314 347.674 71.2242C345.905 70.4223 344.923 68.8982 343.893 67.2973C343.057 65.991 342.185 64.6334 340.85 63.5785C340.789 63.5265 340.657 63.2713 340.585 63.1057C340.394 62.7229 340.154 62.2507 339.723 61.8617C338.391 60.7061 338.137 59.3144 338.99 58.0398C339.41 57.4086 340.319 56.9161 341.291 56.4001C341.598 56.2318 341.892 56.0759 342.199 55.895C342.498 56.0539 342.771 56.1996 343.045 56.3327C343.767 56.7042 344.352 56.9965 344.633 57.3439C347.089 60.3421 349.614 63.6065 352.328 67.3419C352.657 67.8038 353.546 69.0107 351.544 70.7967C350.821 71.4451 350.171 71.7177 349.465 71.6992L349.44 71.6986Z" fill="#382A3F"/>
<path d="M102.618 111.976C101.988 111.96 101.449 111.329 100.705 110.377C100.339 109.902 99.9483 109.413 99.5048 109.011C98.7781 108.35 98.1827 107.491 97.5504 106.593C97.0642 105.9 96.5533 105.182 95.9656 104.511C94.0915 102.397 93.9962 99.7757 95.7168 98.1208C96.6482 97.226 97.3787 96.7793 97.8701 96.7921C98.3616 96.805 99.0412 97.3391 99.9086 98.4069C100.507 99.1529 101.131 99.887 101.743 100.608C102.868 101.935 104.03 103.312 105.027 104.724C105.538 105.442 105.867 106.345 106.22 107.311C106.373 107.73 106.526 108.15 106.705 108.558C106.896 110.414 105.887 110.878 103.952 111.583C103.723 111.665 103.506 111.748 103.29 111.83C103.035 111.924 102.807 111.981 102.618 111.976Z" fill="#382A3F"/>
<path d="M112.796 104.688C110.767 104.635 109.515 101.403 108.829 98.6909C108.269 96.4978 107.871 94.8253 107.546 93.268C107.176 91.5332 108.159 90.5767 110.235 89.3341C110.388 89.2374 110.604 89.1927 110.869 89.1996C112.104 89.232 113.703 90.2938 114.029 91.2971C115.129 94.5872 116.272 98.1051 117.227 101.618C117.307 101.935 117.13 102.434 116.739 102.915C115.956 103.914 114.588 104.647 113.542 104.619L113.416 104.616L113.289 104.638C113.124 104.671 112.96 104.679 112.796 104.675L112.796 104.688Z" fill="#382A3F"/>
<path d="M536.155 104.378C534.151 104.326 533.725 104.214 533.627 101.214C533.592 100.143 533.645 99.0741 533.712 97.9552C533.726 97.4393 533.764 96.9366 533.778 96.4207C533.798 95.6531 534.041 95.521 535.262 95.1374C535.681 95.0099 536.126 94.8705 536.56 94.6552C536.97 94.9052 537.407 95.0677 537.807 95.2167C538.893 95.6355 539.141 95.7931 539.199 96.4871C539.293 97.711 539.628 98.8531 539.907 99.767C539.976 100.008 540.046 100.237 540.104 100.439C539.98 102.778 538.525 104.402 536.507 104.387L536.18 104.379L536.155 104.378Z" fill="#382A3F"/>
</g>
<defs>
<clipPath id="clip0_21_49">
<rect width="76.8385" height="55.4385" fill="white" transform="translate(687.578 119.313) rotate(11)"/>
</clipPath>
<clipPath id="clip1_21_49">
<rect width="697" height="239" fill="white" transform="translate(6.56891 0.982178) rotate(1.5)"/>
</clipPath>
</defs>
</svg>
